<?xml version="1.0" encoding="UTF-8" standalone="no"?>
<!DOCTYPE svg PUBLIC "-//W3C//DTD SVG 1.1//EN" "http://www.w3.org/Graphics/SVG/1.1/DTD/svg11.dtd">
<svg width="100%" height="100%" viewBox="0 0 600 358" version="1.1" xmlns="http://www.w3.org/2000/svg" xmlns:xlink="http://www.w3.org/1999/xlink" xml:space="preserve" xmlns:serif="http://www.serif.com/" style="fill-rule:evenodd;clip-rule:evenodd;stroke-linejoin:round;stroke-miterlimit:2;">
    <g transform="matrix(0.642131,0,0,0.641312,0,0)">
        <rect x="33.986" y="35.186" width="73.985" height="49.323" style="fill:rgb(108,99,255);"/>
    </g>
    <g transform="matrix(0.642131,0,0,0.641312,0,0)">
        <rect x="107.354" y="35.186" width="73.985" height="49.323" style="fill:rgb(230,230,230);"/>
    </g>
    <g transform="matrix(0.642131,0,0,0.641312,0,0)">
        <rect x="180.722" y="35.186" width="73.985" height="49.323" style="fill:rgb(108,99,255);fill-opacity:0.8;"/>
    </g>
    <g transform="matrix(0.642131,0,0,0.641312,0,0)">
        <rect x="254.091" y="35.186" width="73.985" height="49.323" style="fill:rgb(108,99,255);"/>
    </g>
    <g transform="matrix(0.642131,0,0,0.641312,0,0)">
        <rect x="327.459" y="35.186" width="73.985" height="49.323" style="fill:rgb(108,99,255);fill-opacity:0.8;"/>
    </g>
    <g transform="matrix(0.642131,0,0,0.641312,0,0)">
        <rect x="400.827" y="35.186" width="73.985" height="49.323" style="fill:rgb(230,230,230);"/>
    </g>
    <g transform="matrix(0.642131,0,0,0.641312,0,0)">
        <rect x="547.563" y="35.186" width="73.985" height="49.323" style="fill:rgb(230,230,230);"/>
    </g>
    <g transform="matrix(0.642131,0,0,0.641312,0,0)">
        <rect x="33.986" y="82.043" width="73.985" height="49.323" style="fill:rgb(108,99,255);fill-opacity:0.8;"/>
    </g>
    <g transform="matrix(0.642131,0,0,0.641312,0,0)">
        <rect x="107.354" y="82.043" width="73.985" height="49.323" style="fill:rgb(108,99,255);"/>
    </g>
    <g transform="matrix(0.642131,0,0,0.641312,0,0)">
        <rect x="254.091" y="82.043" width="73.985" height="49.323" style="fill:rgb(108,99,255);fill-opacity:0.8;"/>
    </g>
    <g transform="matrix(0.642131,0,0,0.641312,0,0)">
        <rect x="327.459" y="82.043" width="73.985" height="49.323" style="fill:rgb(108,99,255);"/>
    </g>
    <g transform="matrix(0.642131,0,0,0.641312,0,0)">
        <rect x="400.827" y="82.043" width="73.985" height="49.323" style="fill:rgb(108,99,255);fill-opacity:0.8;"/>
    </g>
    <g transform="matrix(0.642131,0,0,0.641312,0,0)">
        <rect x="547.563" y="82.043" width="73.985" height="49.323" style="fill:rgb(108,99,255);"/>
    </g>
    <g transform="matrix(0.642131,0,0,0.641312,0,0)">
        <rect x="33.986" y="128.9" width="73.985" height="49.323" style="fill:rgb(230,230,230);"/>
    </g>
    <g transform="matrix(0.642131,0,0,0.641312,0,0)">
        <rect x="107.354" y="128.9" width="73.985" height="49.323" style="fill:rgb(108,99,255);fill-opacity:0.8;"/>
    </g>
    <g transform="matrix(0.642131,0,0,0.641312,0,0)">
        <rect x="180.722" y="128.9" width="73.985" height="49.323" style="fill:rgb(230,230,230);"/>
    </g>
    <g transform="matrix(0.642131,0,0,0.641312,0,0)">
        <rect x="254.091" y="128.9" width="73.985" height="49.323" style="fill:rgb(108,99,255);"/>
    </g>
    <g transform="matrix(0.642131,0,0,0.641312,0,0)">
        <rect x="327.459" y="128.9" width="73.985" height="49.323" style="fill:rgb(108,99,255);fill-opacity:0.8;"/>
    </g>
    <g transform="matrix(0.642131,0,0,0.641312,0,0)">
        <rect x="400.827" y="128.9" width="73.985" height="49.323" style="fill:rgb(230,230,230);"/>
    </g>
    <g transform="matrix(0.642131,0,0,0.641312,0,0)">
        <rect x="474.195" y="128.9" width="73.985" height="49.323" style="fill:rgb(108,99,255);"/>
    </g>
    <g transform="matrix(0.642131,0,0,0.641312,0,0)">
        <rect x="33.986" y="175.757" width="73.985" height="49.323" style="fill:rgb(108,99,255);"/>
    </g>
    <g transform="matrix(0.642131,0,0,0.641312,0,0)">
        <rect x="107.354" y="175.757" width="73.985" height="49.323" style="fill:rgb(230,230,230);"/>
    </g>
    <g transform="matrix(0.642131,0,0,0.641312,0,0)">
        <rect x="400.827" y="175.757" width="73.985" height="49.323" style="fill:rgb(108,99,255);fill-opacity:0.8;"/>
    </g>
    <g transform="matrix(0.642131,0,0,0.641312,0,0)">
        <rect x="33.986" y="222.614" width="73.985" height="49.323" style="fill:rgb(108,99,255);fill-opacity:0.8;"/>
    </g>
    <g transform="matrix(0.642131,0,0,0.641312,0,0)">
        <rect x="107.354" y="222.614" width="73.985" height="49.323" style="fill:rgb(108,99,255);"/>
    </g>
    <g transform="matrix(0.642131,0,0,0.641312,0,0)">
        <rect x="180.722" y="222.614" width="73.985" height="49.323" style="fill:rgb(230,230,230);"/>
    </g>
    <g transform="matrix(0.642131,0,0,0.641312,0,0)">
        <rect x="254.091" y="222.614" width="73.985" height="49.323" style="fill:rgb(108,99,255);fill-opacity:0.8;"/>
    </g>
    <g transform="matrix(0.642131,0,0,0.641312,0,0)">
        <rect x="327.459" y="222.614" width="73.985" height="49.323" style="fill:rgb(108,99,255);fill-opacity:0.8;"/>
    </g>
    <g transform="matrix(0.642131,0,0,0.641312,0,0)">
        <rect x="33.986" y="269.471" width="73.985" height="49.323" style="fill:rgb(108,99,255);"/>
    </g>
    <g transform="matrix(0.642131,0,0,0.641312,0,0)">
        <rect x="107.354" y="269.471" width="73.985" height="49.323" style="fill:rgb(230,230,230);"/>
    </g>
    <g transform="matrix(0.642131,0,0,0.641312,0,0)">
        <rect x="180.722" y="269.471" width="73.985" height="49.323" style="fill:rgb(108,99,255);fill-opacity:0.8;"/>
    </g>
    <g transform="matrix(0.642131,0,0,0.641312,0,0)">
        <rect x="254.091" y="269.471" width="73.985" height="49.323" style="fill:rgb(108,99,255);"/>
    </g>
    <g transform="matrix(0.642131,0,0,0.641312,0,0)">
        <rect x="33.986" y="317.927" width="73.985" height="49.323" style="fill:rgb(230,230,230);"/>
    </g>
    <g transform="matrix(0.642131,0,0,0.641312,0,0)">
        <rect x="107.354" y="317.927" width="73.985" height="49.323" style="fill:rgb(108,99,255);fill-opacity:0.8;"/>
    </g>
    <g transform="matrix(0.642131,0,0,0.641312,0,0)">
        <rect x="180.722" y="317.927" width="73.985" height="49.323" style="fill:rgb(230,230,230);"/>
    </g>
    <g transform="matrix(0.642131,0,0,0.641312,0,0)">
        <rect x="180.722" y="82.043" width="73.985" height="49.323" style="fill:rgb(108,99,255);"/>
    </g>
    <g transform="matrix(0.642131,0,0,0.641312,0,0)">
        <rect x="474.195" y="35.186" width="73.985" height="49.323" style="fill:rgb(108,99,255);"/>
    </g>
    <g transform="matrix(0.642131,0,0,0.641312,0,0)">
        <rect x="327.459" y="175.757" width="73.985" height="49.323" style="fill:rgb(108,99,255);"/>
    </g>
    <g transform="matrix(0.642131,0,0,0.641312,0,0)">
        <rect x="254.091" y="175.757" width="73.985" height="49.323" style="fill:rgb(230,230,230);"/>
    </g>
    <g transform="matrix(0.642131,0,0,0.641312,0,0)">
        <rect x="180.722" y="175.757" width="73.985" height="49.323" style="fill:rgb(108,99,255);fill-opacity:0.8;"/>
    </g>
    <g transform="matrix(0.642131,0,0,0.641312,0,0)">
        <circle cx="11.195" cy="59.975" r="11.195" style="fill:rgb(63,61,86);"/>
    </g>
    <g transform="matrix(0.642131,0,0,0.641312,0,0)">
        <circle cx="70.978" cy="11.195" r="11.195" style="fill:rgb(230,230,230);"/>
    </g>
    <g transform="matrix(0.642131,0,0,0.641312,0,0)">
        <circle cx="144.347" cy="11.195" r="11.195" style="fill:rgb(230,230,230);"/>
    </g>
    <g transform="matrix(0.642131,0,0,0.641312,0,0)">
        <circle cx="217.715" cy="11.195" r="11.195" style="fill:rgb(230,230,230);"/>
    </g>
    <g transform="matrix(0.642131,0,0,0.641312,0,0)">
        <circle cx="291.083" cy="11.195" r="11.195" style="fill:rgb(230,230,230);"/>
    </g>
    <g transform="matrix(0.642131,0,0,0.641312,0,0)">
        <circle cx="364.451" cy="11.195" r="11.195" style="fill:rgb(230,230,230);"/>
    </g>
    <g transform="matrix(0.642131,0,0,0.641312,0,0)">
        <circle cx="437.819" cy="11.195" r="11.195" style="fill:rgb(230,230,230);"/>
    </g>
    <g transform="matrix(0.642131,0,0,0.641312,0,0)">
        <circle cx="511.187" cy="11.195" r="11.195" style="fill:rgb(230,230,230);"/>
    </g>
    <g transform="matrix(0.642131,0,0,0.641312,0,0)">
        <circle cx="584.556" cy="11.195" r="11.195" style="fill:rgb(230,230,230);"/>
    </g>
    <g transform="matrix(0.642131,0,0,0.641312,0,0)">
        <circle cx="657.924" cy="11.195" r="11.195" style="fill:rgb(230,230,230);"/>
    </g>
    <g transform="matrix(0.642131,0,0,0.641312,0,0)">
        <circle cx="11.195" cy="106.704" r="11.195" style="fill:rgb(63,61,86);"/>
    </g>
    <g transform="matrix(0.642131,0,0,0.641312,0,0)">
        <circle cx="11.195" cy="153.561" r="11.195" style="fill:rgb(63,61,86);"/>
    </g>
    <g transform="matrix(0.642131,0,0,0.641312,0,0)">
        <circle cx="11.195" cy="200.418" r="11.195" style="fill:rgb(63,61,86);"/>
    </g>
    <g transform="matrix(0.642131,0,0,0.641312,0,0)">
        <circle cx="11.195" cy="247.275" r="11.195" style="fill:rgb(63,61,86);"/>
    </g>
    <g transform="matrix(0.642131,0,0,0.641312,0,0)">
        <circle cx="11.195" cy="294.132" r="11.195" style="fill:rgb(63,61,86);"/>
    </g>
    <g transform="matrix(0.642131,0,0,0.641312,0,0)">
        <circle cx="11.195" cy="342.588" r="11.195" style="fill:rgb(63,61,86);"/>
    </g>
    <g transform="matrix(0.642131,0,0,0.641312,0,0)">
        <rect x="474.195" y="82.043" width="73.985" height="49.323" style="fill:rgb(230,230,230);"/>
    </g>
    <g transform="matrix(0.642131,0,0,0.641312,0,0)">
        <rect x="620.931" y="35.186" width="73.985" height="49.323" style="fill:rgb(108,99,255);fill-opacity:0.8;"/>
    </g>
    <g transform="matrix(0.642131,0,0,0.641312,0,0)">
        <path d="M934.007,543.231L676.269,543.231L676.269,541.125L934.389,541.125L934.007,543.231Z" style="fill:rgb(63,61,86);fill-rule:nonzero;"/>
    </g>
    <g transform="matrix(0.642131,0,0,0.641312,0,0)">
        <path d="M763,538L776.5,536.5L776.5,512.5L762,513L763,538Z" style="fill:rgb(255,184,184);fill-rule:nonzero;"/>
    </g>
    <g transform="matrix(0.642131,0,0,0.641312,0,0)">
        <path d="M833,538L818.5,536.5L821,513L837.5,512.5L833,538Z" style="fill:rgb(255,184,184);fill-rule:nonzero;"/>
    </g>
    <g transform="matrix(0.642131,0,0,0.641312,-85.2783,-109.59)">
        <path d="M889.305,687.385L910.975,686.778C924.553,615.807 937.794,550.165 959.305,495.385L950.305,686.385L973.305,686.385L1008.31,472.385L928.305,464.385C901.512,535.187 889.352,609.736 889.305,687.385Z" style="fill:rgb(47,46,65);fill-rule:nonzero;"/>
    </g>
    <g transform="matrix(0.642131,0,0,0.641312,-85.2783,-109.59)">
        <path d="M883.254,728.318C888.066,730.151 893.544,728.739 896.87,724.808L902.305,718.385L912.305,713.385L910.711,696.641C910.641,695.91 910.019,695.345 909.284,695.345C908.787,695.345 908.325,695.603 908.064,696.026L902.305,705.385C900.181,697.731 896.513,693.753 890.765,694.721C887.16,695.403 884.063,697.709 882.376,700.967L876.875,711.184C875.92,712.956 875.421,714.938 875.421,716.951C875.421,721.987 878.548,726.525 883.254,728.318Z" style="fill:rgb(47,46,65);fill-rule:nonzero;"/>
    </g>
    <g transform="matrix(0.642131,0,0,0.641312,-85.2783,-109.59)">
        <path d="M977.356,728.318C972.544,730.151 967.066,728.739 963.74,724.808L958.305,718.385L948.305,713.385L949.9,696.641C949.97,695.91 950.591,695.345 951.326,695.345C951.823,695.345 952.286,695.603 952.546,696.026L958.305,705.385C960.429,697.731 964.098,693.753 969.845,694.721C973.45,695.403 976.548,697.709 978.234,700.967L983.736,711.184C984.69,712.956 985.19,714.938 985.19,716.951C985.19,721.987 982.062,726.525 977.356,728.318Z" style="fill:rgb(47,46,65);fill-rule:nonzero;"/>
    </g>
    <g transform="matrix(0.642131,0,0,0.641312,0,0)">
        <circle cx="836" cy="101" r="24" style="fill:rgb(255,184,184);"/>
    </g>
    <g transform="matrix(-0.642131,4.91062e-16,-4.91688e-16,-0.641312,1158.28,275.69)">
        <rect x="953.305" y="284.385" width="30" height="32" style="fill:rgb(255,184,184);"/>
    </g>
    <g transform="matrix(0.642131,0,0,0.641312,-85.2783,-109.59)">
        <path d="M931.805,464.885C956.934,470.774 983.505,479.299 1000.81,470.885L1000.31,315.385C992.962,312.692 986.891,307.336 983.305,300.385L971.305,310.385L953.305,299.385C947.048,306.945 938.642,314.898 928.805,317.885L931.805,464.885Z" style="fill:rgb(230,230,230);fill-rule:nonzero;"/>
    </g>
    <g transform="matrix(0.642131,0,0,0.641312,-85.2783,-109.59)">
        <path d="M972.305,438.385C968,481 988.094,478.184 1014.31,477.385C1003.4,423.023 1003.77,371.528 1017.31,323.385C1003.63,316.827 991.616,309.244 983.305,299.385C983.713,300.464 982.444,299.811 982.805,300.885C991.292,326.125 988.446,351.73 972.305,374.385L972.305,438.385Z" style="fill:rgb(47,46,65);fill-rule:nonzero;"/>
    </g>
    <g transform="matrix(0.642131,0,0,0.641312,-85.2783,-109.59)">
        <path d="M1020.81,480.885L1013.9,494.699C1013.15,496.189 1012.77,497.831 1012.77,499.496C1012.77,504.474 1016.23,508.829 1021.08,509.948C1021.87,510.131 1022.68,510.223 1023.49,510.223C1029.25,510.223 1034.03,505.587 1034.21,499.831L1034.81,480.885L1034.81,465.885L1020.81,465.885L1020.81,480.885Z" style="fill:rgb(255,184,184);fill-rule:nonzero;"/>
    </g>
    <g transform="matrix(0.642131,0,0,0.641312,-85.2783,-109.59)">
        <path d="M974.305,439.385C973.32,471.931 969.992,476.839 922.305,475.385C933.207,421.023 932.843,369.528 919.305,321.385C932.983,314.827 944.994,307.244 953.305,297.385C952.741,298.877 954.232,299.39 953.805,300.885C946.678,325.87 958.427,352.1 974.305,374.385L974.305,439.385Z" style="fill:rgb(47,46,65);fill-rule:nonzero;"/>
    </g>
    <g transform="matrix(0.642131,0,0,0.641312,-85.2783,-109.59)">
        <path d="M914.805,476.885L921.713,490.699C922.457,492.189 922.845,493.831 922.845,495.496C922.845,500.474 919.38,504.829 914.531,505.948C913.74,506.131 912.93,506.223 912.119,506.223C906.361,506.223 901.577,501.587 901.397,495.831L900.805,476.885L900.805,461.885L914.805,461.885L914.805,476.885Z" style="fill:rgb(255,184,184);fill-rule:nonzero;"/>
    </g>
    <g transform="matrix(0.642131,0,0,0.641312,-85.2783,-109.59)">
        <path d="M970.126,230.914C974.202,231.101 978.173,232.271 981.701,234.322C982.512,234.794 982.137,236.497 982.887,237.052C983.831,237.751 985.881,237.327 986.717,238.146C992.179,243.478 994.956,251 994.267,258.602L992.936,271.839L989.796,268.404C984.167,262.163 976.345,258.323 967.964,257.686C967.607,257.662 967.251,257.643 966.893,257.629L969.309,253.401L965.11,257.6C963.195,257.621 961.283,257.777 959.389,258.066L962.602,252.443L956.437,258.608L956.437,258.608C951.328,259.732 947.047,263.223 944.919,268.002L944.235,269.52L943.468,256.892C943.464,256.708 943.462,256.523 943.462,256.339C943.462,242.375 954.952,230.885 968.915,230.885C969.319,230.885 969.722,230.895 970.126,230.914Z" style="fill:rgb(47,46,65);fill-rule:nonzero;"/>
    </g>
    <g transform="matrix(0.642131,0,0,0.641312,0,0)">
        <ellipse cx="859.499" cy="100.002" rx="1.916" ry="4.551" style="fill:rgb(255,184,184);"/>
    </g>
    <g transform="matrix(0.642131,0,0,0.641312,0,0)">
        <ellipse cx="811.593" cy="98.565" rx="1.916" ry="4.551" style="fill:rgb(255,184,184);"/>
    </g>
    <g transform="matrix(0.642131,0,0,0.641312,-85.2783,-109.59)">
        <path d="M917.805,470.885L894.305,472.385L906.305,340.508C906.305,330.402 913.053,321.457 922.77,318.681L927.305,317.385C933.826,371.574 926.523,423.458 917.805,470.885Z" style="fill:rgb(47,46,65);fill-rule:nonzero;"/>
    </g>
    <g transform="matrix(0.642131,0,0,0.641312,-85.2783,-109.59)">
        <path d="M1018.81,473.885L1036.81,474.885L1030.31,342.508C1030.31,332.402 1023.56,323.457 1013.84,320.681L1009.31,319.385C1002.78,373.574 1010.09,426.458 1018.81,473.885Z" style="fill:rgb(47,46,65);fill-rule:nonzero;"/>
    </g>
</svg>
