<?xml version="1.0" encoding="UTF-8" standalone="no"?>
<!DOCTYPE svg PUBLIC "-//W3C//DTD SVG 1.1//EN" "http://www.w3.org/Graphics/SVG/1.1/DTD/svg11.dtd">
<svg width="100%" height="100%" viewBox="0 0 600 506" version="1.1" xmlns="http://www.w3.org/2000/svg" xmlns:xlink="http://www.w3.org/1999/xlink" xml:space="preserve" xmlns:serif="http://www.serif.com/" style="fill-rule:evenodd;clip-rule:evenodd;stroke-linejoin:round;stroke-miterlimit:2;">
    <g transform="matrix(0.778916,0,0,0.777445,-167.35,-96.8502)">
        <path d="M934.27,694.148C934.27,694.148 821.964,642.448 861.417,606.596C900.87,570.744 934.27,694.148 934.27,694.148Z" style="fill:rgb(230,230,230);fill-rule:nonzero;"/>
    </g>
    <g transform="matrix(0.778916,0,0,0.777445,-167.35,-96.8502)">
        <path d="M932.316,706.212C932.316,706.212 880.696,536.606 956.708,544.717C1032.72,552.828 932.316,706.212 932.316,706.212Z" style="fill:rgb(230,230,230);fill-rule:nonzero;"/>
    </g>
    <g transform="matrix(0.778916,0,0,0.777445,-167.35,-96.8502)">
        <path d="M894.679,691.17L896.846,719.542L896.88,720.032C896.878,724.462 897.102,728.89 897.551,733.298C900.491,762.237 913.129,775.425 927.9,775.425C942.67,775.425 954.758,762.237 957.698,733.298C958.147,728.89 958.371,724.462 958.369,720.032L958.386,719.636L958.395,719.542L960.57,691.17L894.679,691.17Z" style="fill:rgb(230,230,230);fill-rule:nonzero;"/>
    </g>
    <g transform="matrix(0.778916,0,0,0.777445,-167.35,-96.8502)">
        <path d="M958.395,719.542L958.386,719.636L958.369,720.032C958.371,724.462 958.147,728.89 957.698,733.298L897.551,733.298C897.102,728.89 896.878,724.462 896.88,720.032L896.846,719.542L958.395,719.542Z" style="fill:white;fill-rule:nonzero;"/>
    </g>
    <g transform="matrix(0.778916,0,0,0.777445,-167.35,-96.8502)">
        <path d="M299.659,718.839C299.659,718.839 257.899,699.614 272.57,686.283C287.24,672.952 299.659,718.839 299.659,718.839Z" style="fill:rgb(230,230,230);fill-rule:nonzero;"/>
    </g>
    <g transform="matrix(0.778916,0,0,0.777445,-167.35,-96.8502)">
        <path d="M272.004,716.803L273.512,736.543L273.535,736.884C273.534,739.966 273.69,743.047 274.002,746.114C276.048,766.249 284.841,775.425 295.118,775.425C305.395,775.425 313.806,766.249 315.851,746.114C316.164,743.047 316.319,739.966 316.318,736.884L316.33,736.609L316.336,736.543L317.849,716.803L272.004,716.803Z" style="fill:rgb(230,230,230);fill-rule:nonzero;"/>
    </g>
    <g transform="matrix(0.778916,0,0,0.777445,-167.35,-96.8502)">
        <path d="M738.253,430.901C741.004,429 742.65,425.862 742.65,422.519C742.65,418.097 739.771,414.157 735.558,412.813L712.177,405.356L699.33,416.489L727.691,431.521C731.046,433.299 735.129,433.059 738.253,430.901Z" style="fill:rgb(255,185,185);fill-rule:nonzero;"/>
    </g>
    <g transform="matrix(0.778916,0,0,0.777445,-167.35,-96.8502)">
        <path d="M698.935,423.759L714.349,405.886L656.954,343.07L630.528,281.803C626.95,273.506 617.876,268.9 609.067,270.908C600.535,272.853 594.43,280.505 594.43,289.256C594.43,292.274 595.157,295.248 596.547,297.926L631.038,364.362L698.935,423.759Z" style="fill:rgb(230,230,230);fill-rule:nonzero;"/>
    </g>
    <g transform="matrix(0.778916,0,0,0.777445,0,0)">
        <path d="M520.909,535.935L517.955,531.35L512.5,531.35L512.5,529.35L519.045,529.35L522.591,534.851L520.909,535.935Z" style="fill:rgb(63,61,86);fill-rule:nonzero;"/>
    </g>
    <g transform="matrix(0.778916,0,0,0.777445,-167.35,-96.8502)">
        <path d="M723.517,655.925L712.02,655.925L712.02,653.925L723.517,653.925L723.517,655.925ZM708.187,655.925L696.69,655.925L696.69,653.925L708.187,653.925L708.187,655.925ZM692.858,655.925L681.361,655.925L681.361,653.925L692.858,653.925L692.858,655.925ZM677.528,655.925L666.031,655.925L666.031,653.925L677.528,653.925L677.528,655.925ZM662.199,655.925L650.702,655.925L650.702,653.925L662.199,653.925L662.199,655.925ZM646.869,655.925L636.217,655.916L635.249,655.787L635.512,653.805L636.416,653.925L646.869,653.925L646.869,655.925ZM631.45,655.282L620.052,653.769L620.316,651.786L631.714,653.3L631.45,655.282ZM616.254,653.264L604.857,651.749L605.12,649.767L616.517,651.281L616.254,653.264ZM601.058,651.244L589.661,649.731L589.924,647.748L601.321,649.262L601.058,651.244ZM585.861,649.226L574.464,647.711L574.728,645.729L586.125,647.243L585.861,649.226Z" style="fill:rgb(63,61,86);fill-rule:nonzero;"/>
    </g>
    <g transform="matrix(0.778916,0,0,0.777445,0,0)">
        <path d="M350.828,526.876L348.829,526.82L349.032,519.712L356.08,520.649L355.816,522.631L350.968,521.988L350.828,526.876Z" style="fill:rgb(63,61,86);fill-rule:nonzero;"/>
    </g>
    <g transform="matrix(0.778916,0,0,0.777445,-167.35,-96.8502)">
        <path d="M564.148,704.993L562.149,704.937L562.531,691.551L564.53,691.608L564.148,704.993ZM564.658,687.146L562.659,687.089L563.041,673.703L565.04,673.76L564.658,687.146ZM565.168,669.298L563.169,669.241L563.551,655.856L565.55,655.912L565.168,669.298Z" style="fill:rgb(63,61,86);fill-rule:nonzero;"/>
    </g>
    <g transform="matrix(0.778916,0,0,0.777445,0,0)">
        <path d="M346.969,591.933L347.172,584.824L349.171,584.88L349.031,589.767L353.904,589.388L354.06,591.382L346.969,591.933Z" style="fill:rgb(63,61,86);fill-rule:nonzero;"/>
    </g>
    <g transform="matrix(0.778916,0,0,0.777445,-167.35,-96.8502)">
        <path d="M572.736,715.66L572.581,713.666L584.063,712.774L584.218,714.768L572.736,715.66ZM588.045,714.471L587.89,712.477L599.372,711.584L599.527,713.578L588.045,714.471ZM603.354,713.281L603.199,711.287L614.681,710.395L614.836,712.389L603.354,713.281ZM618.663,712.092L618.508,710.098L629.99,709.205L630.144,711.199L618.663,712.092ZM633.971,710.903L633.817,708.908L645.299,708.016L645.454,710.01L633.971,710.903ZM649.281,709.713L649.127,707.719L660.608,706.826L660.762,708.821L649.281,709.713ZM664.59,708.524L664.435,706.53L675.918,705.637L676.072,707.631L664.59,708.524ZM679.899,707.334L679.745,705.34L691.226,704.447L691.381,706.442L679.899,707.334ZM695.208,706.145L695.053,704.151L706.536,703.258L706.69,705.252L695.208,706.145ZM710.517,704.955L710.363,702.961L721.844,702.069L721.999,704.063L710.517,704.955ZM725.826,703.766L725.672,701.772L737.154,700.879L737.308,702.873L725.826,703.766ZM741.135,702.576L740.981,700.582L752.463,699.69L752.617,701.684L741.135,702.576Z" style="fill:rgb(63,61,86);fill-rule:nonzero;"/>
    </g>
    <g transform="matrix(0.778916,0,0,0.777445,0,0)">
        <path d="M541.595,576.812L541.44,574.818L545.752,574.483L543.409,570.849L545.091,569.765L549.248,576.217L541.595,576.812Z" style="fill:rgb(63,61,86);fill-rule:nonzero;"/>
    </g>
    <g transform="matrix(0.778916,0,0,0.777445,-167.35,-96.8502)">
        <path d="M755.758,691.544L748.258,679.906L749.94,678.822L757.44,690.46L755.758,691.544ZM745.758,676.028L738.258,664.39L739.94,663.306L747.44,674.944L745.758,676.028Z" style="fill:rgb(63,61,86);fill-rule:nonzero;"/>
    </g>
    <g transform="matrix(0.778916,0,0,0.777445,0,0)">
        <circle cx="504" cy="551.85" r="68" style="fill:rgb(108,99,255);"/>
    </g>
    <g transform="matrix(0.778916,0,0,0.777445,0,0)">
        <path d="M560,630.85L460.5,454.35L438.5,476.35L536.5,630.35L560,630.85Z" style="fill:rgb(63,61,86);fill-rule:nonzero;"/>
    </g>
    <g transform="matrix(0.778916,0,0,0.777445,0,0)">
        <path d="M258.5,626.35L482,399.85L500.5,436.35L288.5,636.35L258.5,626.35Z" style="fill:rgb(63,61,86);fill-rule:nonzero;"/>
    </g>
    <g transform="matrix(0.778916,0,0,0.777445,0,0)">
        <circle cx="349.5" cy="557.35" r="45" style="fill:rgb(63,61,86);"/>
    </g>
    <g transform="matrix(0.778916,0,0,0.777445,-167.35,-96.8502)">
        <path d="M504.349,694.925C503.801,694.926 503.35,695.377 503.349,695.925L503.349,703.925C503.35,704.473 503.801,704.924 504.349,704.925L529.349,704.925C529.898,704.924 530.349,704.473 530.349,703.925L530.349,695.925C530.349,695.377 529.898,694.926 529.349,694.925L504.349,694.925Z" style="fill:rgb(108,99,255);fill-rule:nonzero;"/>
    </g>
    <g transform="matrix(0.778916,0,0,0.777445,-167.35,-96.8502)">
        <path d="M561.849,583.425C561.301,583.426 560.85,583.877 560.849,584.425L560.849,592.425C560.85,592.973 561.301,593.424 561.849,593.425L586.849,593.425C587.398,593.424 587.849,592.973 587.849,592.425L587.849,584.425C587.849,583.877 587.398,583.426 586.849,583.425L561.849,583.425Z" style="fill:rgb(108,99,255);fill-rule:nonzero;"/>
    </g>
    <g transform="matrix(0.778916,0,0,0.777445,0,0)">
        <path d="M468.5,442.35L442.5,442.35L442.5,422.35L452.5,418.35L468.5,430.35L468.5,442.35Z" style="fill:rgb(63,61,86);fill-rule:nonzero;"/>
    </g>
    <g transform="matrix(0.704112,-0.332442,0.333071,0.702782,-299.006,163.787)">
        <rect x="660.349" y="537.925" width="3" height="12" style="fill:rgb(63,61,86);"/>
    </g>
    <g transform="matrix(0.778916,0,0,0.777445,-167.35,-96.8502)">
        <path d="M663.514,524.881C663.323,524.881 663.136,524.936 662.976,525.04L645.313,536.4C644.852,536.697 644.717,537.32 645.013,537.781L649.34,544.51C649.637,544.971 650.261,545.106 650.722,544.81L668.385,533.45L668.385,533.451C668.846,533.153 668.981,532.53 668.685,532.069L664.358,525.34C664.215,525.117 663.988,524.96 663.729,524.904C663.659,524.889 663.587,524.881 663.514,524.881Z" style="fill:rgb(108,99,255);fill-rule:nonzero;"/>
    </g>
    <g transform="matrix(0.778916,0,0,0.777445,-167.35,-96.8502)">
        <path d="M703.349,564.925L682.849,465.425L706.849,461.425L723.213,541.58C723.567,543.04 723.745,544.536 723.745,546.038C723.745,556.43 715.194,564.981 704.802,564.981C704.317,564.981 703.833,564.962 703.349,564.925Z" style="fill:rgb(63,61,86);fill-rule:nonzero;"/>
    </g>
    <g transform="matrix(0.778916,0,0,0.777445,-167.35,-96.8502)">
        <path d="M778.881,445.82L755.139,444.124C754.098,444.05 753.282,443.173 753.282,442.129C753.282,441.861 753.336,441.596 753.44,441.349L787.926,359.923C788.19,359.301 788.751,358.853 789.416,358.734L812.834,354.553C812.95,354.532 813.068,354.522 813.186,354.522C814.283,354.522 815.186,355.424 815.186,356.522C815.186,356.771 815.139,357.018 815.048,357.25L780.886,444.554C780.568,445.367 779.752,445.882 778.881,445.82Z" style="fill:rgb(63,61,86);fill-rule:nonzero;"/>
    </g>
    <g transform="matrix(0.778916,0,0,0.777445,0,0)">
        <path d="M543.5,313.35L562.5,315.35L593.5,237.35L573.5,240.35L543.5,313.35Z" style="fill:rgb(108,99,255);fill-rule:nonzero;"/>
    </g>
    <g transform="matrix(0.778916,0,0,0.777445,0,0)">
        <path d="M336.5,527.35L311.5,552.35L275.5,395.35L295.5,398.35L336.5,527.35Z" style="fill:rgb(63,61,86);fill-rule:nonzero;"/>
    </g>
    <g transform="matrix(0.778916,0,0,0.777445,-167.35,-96.8502)">
        <path d="M522.215,522.687L517.897,521.392C509.413,525.132 500.181,526.869 490.918,526.469C486.784,526.297 483.484,522.837 483.507,518.7C483.507,514.435 487.017,510.925 491.282,510.925L528.999,510.925C531.111,510.925 532.849,512.663 532.849,514.775C532.849,519.307 529.12,523.035 524.589,523.035C523.785,523.035 522.985,522.918 522.215,522.687Z" style="fill:rgb(63,61,86);fill-rule:nonzero;"/>
    </g>
    <g transform="matrix(0.778916,0,0,0.777445,-167.35,-96.8502)">
        <path d="M761.118,424.504C760.152,424.502 759.213,424.819 758.445,425.405L727.744,448.882L693.378,453.364C687.461,454.136 683.363,460.573 682.849,466.425L723.302,460.807C728.921,460.266 734.233,457.986 738.497,454.286L763.999,432.231C764.966,431.396 765.523,430.179 765.523,428.901C765.523,426.489 763.538,424.504 761.126,424.504C761.123,424.504 761.121,424.504 761.118,424.504L761.118,424.504Z" style="fill:rgb(63,61,86);fill-rule:nonzero;"/>
    </g>
    <g transform="matrix(0.778916,0,0,0.777445,-167.35,-96.8502)">
        <path d="M746.118,409.504C745.152,409.502 744.213,409.819 743.445,410.405L712.744,433.882L678.378,438.364C672.461,439.136 668.363,445.573 667.849,451.425L708.302,445.807C713.921,445.266 719.233,442.986 723.497,439.286L748.999,417.231C749.966,416.396 750.523,415.179 750.523,413.901C750.523,411.489 748.538,409.504 746.126,409.504C746.123,409.504 746.121,409.504 746.118,409.504L746.118,409.504Z" style="fill:rgb(63,61,86);fill-rule:nonzero;"/>
    </g>
    <g transform="matrix(0.778916,0,0,0.777445,-167.35,-96.8502)">
        <path d="M764.85,469.925C750.363,469.895 736.721,462.977 728.137,451.308L732.168,448.351C739.79,458.761 751.945,464.927 764.848,464.927C787.066,464.927 805.35,446.644 805.35,424.425C805.35,414.557 801.743,405.021 795.212,397.622L798.96,394.312C806.297,402.623 810.35,413.337 810.35,424.424C810.35,449.385 789.81,469.924 764.85,469.925L764.85,469.925Z" style="fill:rgb(63,61,86);fill-rule:nonzero;"/>
    </g>
    <g transform="matrix(0.778916,0,0,0.777445,0,0)">
        <rect x="231" y="625.85" width="354" height="25" style="fill:rgb(63,61,86);"/>
    </g>
    <g transform="matrix(0.778916,0,0,0.777445,-167.35,-96.8502)">
        <path d="M713.097,456.626C716.956,455.082 719.501,451.324 719.501,447.167C719.501,443.565 717.591,440.221 714.488,438.392L693.349,425.925L678.349,433.925L702.661,454.883C705.537,457.363 709.571,458.036 713.097,456.626Z" style="fill:rgb(255,185,185);fill-rule:nonzero;"/>
    </g>
    <g transform="matrix(0.778916,0,0,0.777445,-167.35,-96.8502)">
        <path d="M547.349,544.925L561.349,552.925L647.797,489.294C654.203,484.917 658.497,478.056 659.634,470.381C661.062,460.623 657.222,450.805 649.553,444.604C630.462,429.098 606.867,415.034 581.849,401.425L544.849,419.425C560.098,450.691 577.024,476.47 601.849,476.425L547.349,544.925Z" style="fill:rgb(108,99,255);fill-rule:nonzero;"/>
    </g>
    <g transform="matrix(0.778916,0,0,0.777445,-167.35,-96.8502)">
        <path d="M541.246,565.295C552.862,577.063 568.158,585.483 585.242,592.275C587.875,593.318 590.897,592.583 592.758,590.449C595.038,587.835 594.928,583.861 592.509,581.377L581.434,570.008L574.743,546.177C560.375,553.279 550.953,551.689 549.096,536.81L540.039,549.16C536.439,554.084 536.953,560.962 541.246,565.295Z" style="fill:rgb(47,46,65);fill-rule:nonzero;"/>
    </g>
    <g transform="matrix(0.778916,0,0,0.777445,-167.35,-96.8502)">
        <path d="M502.349,670.925L523.349,671.925L571.349,424.925L488.849,398.425C480.612,429.22 492.842,479.628 514.349,538.925L502.349,670.925Z" style="fill:rgb(108,99,255);fill-rule:nonzero;"/>
    </g>
    <g transform="matrix(0.778916,0,0,0.777445,0,0)">
        <circle cx="449" cy="105.85" r="33" style="fill:rgb(255,185,185);"/>
    </g>
    <g transform="matrix(0.778916,0,0,0.777445,0,0)">
        <path d="M388.5,146.35L409.5,161.35L441.5,129.35L425.5,109.35L388.5,146.35Z" style="fill:rgb(255,185,185);fill-rule:nonzero;"/>
    </g>
    <g transform="matrix(0.778916,0,0,0.777445,-167.35,-96.8502)">
        <path d="M485.349,400.925C511.248,422.03 539.528,435.902 574.349,429.925C584.871,413.103 592.64,377.666 605.849,362.425C634.695,329.142 649.001,299.475 639.849,272.425C630.953,266.609 631.345,266.619 624.849,247.425C573.972,256.838 524.718,314.27 485.349,400.925Z" style="fill:rgb(230,230,230);fill-rule:nonzero;"/>
    </g>
    <g transform="matrix(0.778916,0,0,0.777445,-167.35,-96.8502)">
        <path d="M502.013,691.505C516.961,698.574 534.217,701.235 552.595,701.754C555.425,701.831 558.012,700.104 559.028,697.461C560.273,694.224 558.807,690.528 555.681,689.025L541.379,682.145L526.918,662.056C515.858,673.656 506.463,675.395 499.614,662.056L495.344,676.764C493.651,682.624 496.494,688.908 502.013,691.505Z" style="fill:rgb(47,46,65);fill-rule:nonzero;"/>
    </g>
    <g transform="matrix(0.778916,0,0,0.777445,-167.35,-96.8502)">
        <path d="M676.349,440.925L695.349,426.925L653.349,352.925L641.2,287.317C639.554,278.432 631.731,271.925 622.696,271.925C612.372,271.925 603.878,280.42 603.878,290.743C603.878,292.344 604.082,293.937 604.485,295.486L623.349,367.925L676.349,440.925Z" style="fill:rgb(230,230,230);fill-rule:nonzero;"/>
    </g>
    <g transform="matrix(0.778916,0,0,0.777445,0,0)">
        <rect x="355" y="467.85" width="11" height="60" style="fill:rgb(63,61,86);"/>
    </g>
    <g transform="matrix(0.778916,0,0,0.777445,-167.35,-96.8502)">
        <path d="M689.969,220.854C692.591,223.997 696.631,225.611 700.697,225.141C704.669,224.521 708.205,221.133 708.459,217.121C708.678,213.656 706.642,210.478 704.505,207.742C699.789,201.709 694.19,196.423 687.895,192.063C684.893,189.985 681.582,188.072 677.938,187.848C676.135,187.737 674.328,188.048 672.523,187.97C669.205,187.828 666.096,186.392 662.859,185.648C656.137,184.151 649.086,185.645 643.55,189.739C641.724,191.134 640.073,192.744 638.631,194.533C634.646,199.408 631.972,205.222 630.866,211.421C629.126,221.248 631.298,232.026 626.576,240.818C632.116,240.3 636.559,236.075 641.823,234.269C645.728,232.944 649.969,232.981 653.85,234.377C654.85,234.889 655.977,235.1 657.095,234.983C658.018,234.658 658.825,234.067 659.416,233.287L669.481,222.334C671.53,220.106 673.857,217.731 676.868,217.422C678.666,217.36 680.454,217.715 682.092,218.458C686.128,219.984 690.032,221.839 693.764,224.005" style="fill:rgb(47,46,65);fill-rule:nonzero;"/>
    </g>
    <g transform="matrix(0.778916,0,0,0.777445,0,0)">
        <path d="M456,324.85L453,326.85L473,346.85L485,335.85L465,319.85L456,324.85Z" style="fill:rgb(63,61,86);fill-rule:nonzero;"/>
    </g>
    <g transform="matrix(0.778916,0,0,0.777445,0,0)">
        <rect x="0" y="0" width="247.66" height="256.25" style="fill:rgb(230,230,230);"/>
    </g>
    <g transform="matrix(0.778916,0,0,0.777445,0,0)">
        <rect x="13.22" y="13.68" width="221.22" height="228.89" style="fill:white;"/>
    </g>
    <g transform="matrix(0.778916,0,0,0.777445,0,0)">
        <path d="M56.26,246.57L64.139,246.57L64.089,243.398L63.954,236.362L62.705,164.015L62.688,163.677L62.047,126.711L60.478,36.85L60.124,36.85L58.453,127.369L57.795,163.694L57.778,164.032L56.26,246.57Z" style="fill:rgb(230,230,230);fill-rule:nonzero;"/>
    </g>
    <g transform="matrix(0.362865,0.687929,-0.68923,0.36218,200.258,-143.957)">
        <rect x="283.016" y="348.737" width="6.291" height="23.764" style="fill:rgb(230,230,230);"/>
    </g>
    <g transform="matrix(0.778916,0,0,0.777445,0,0)">
        <rect x="119" y="6.85" width="10" height="242" style="fill:rgb(230,230,230);"/>
    </g>
    <g transform="matrix(0.778916,0,0,0.777445,0,0)">
        <rect x="0" y="122.85" width="247.66" height="10" style="fill:rgb(230,230,230);"/>
    </g>
</svg>
