<?xml version="1.0" encoding="UTF-8" standalone="no"?>
<!DOCTYPE svg PUBLIC "-//W3C//DTD SVG 1.1//EN" "http://www.w3.org/Graphics/SVG/1.1/DTD/svg11.dtd">
<svg width="100%" height="100%" viewBox="0 0 800 507" version="1.1" xmlns="http://www.w3.org/2000/svg" xmlns:xlink="http://www.w3.org/1999/xlink" xml:space="preserve" xmlns:serif="http://www.serif.com/" style="fill-rule:evenodd;clip-rule:evenodd;stroke-linejoin:round;stroke-miterlimit:2;">
    <g transform="matrix(1.33333,0,0,1.33333,0,0)">
        <g transform="matrix(0.785223,0,0,0.785124,-171.134,-163.306)">
            <path d="M976.321,525L681.329,525C678.183,524.996 675.596,522.409 675.593,519.264L675.593,213.736C675.596,210.591 678.183,208.004 681.329,208L976.321,208C979.466,208.004 982.054,210.591 982.057,213.736L982.057,519.264C982.054,522.409 979.466,524.996 976.321,525ZM681.329,210C679.28,210.002 677.595,211.688 677.593,213.736L677.593,519.264C677.595,521.312 679.28,522.998 681.329,523L976.321,523C978.37,522.998 980.055,521.312 980.057,519.264L980.057,213.736C980.055,211.688 978.37,210.002 976.321,210L681.329,210Z" style="fill:rgb(63,61,86);fill-rule:nonzero;"/>
        </g>
        <g transform="matrix(0.785223,0,0,0.785124,-171.134,-163.306)">
            <path d="M884.428,336.406C889.432,345.65 892.054,355.997 892.054,366.508C892.054,401.19 863.515,429.729 828.833,429.729C794.151,429.729 765.612,401.19 765.612,366.508C765.612,331.829 794.146,303.292 828.825,303.287C829.326,303.287 829.826,303.295 830.325,303.306L829.656,276.301C829.379,276.298 829.103,276.29 828.825,276.29C779.361,276.305 738.667,317.011 738.667,366.474C738.667,415.947 779.378,456.658 828.851,456.658C878.324,456.658 919.034,415.947 919.034,366.474C919.034,350.125 914.589,334.08 906.175,320.063L884.428,336.406Z" style="fill:rgb(108,99,255);fill-rule:nonzero;"/>
        </g>
        <g transform="matrix(0.785223,0,0,0.785124,-171.134,-163.306)">
            <path d="M884.428,336.406L906.175,320.063C890.043,293.181 861.006,276.574 829.656,276.301L830.325,303.306C852.962,303.837 873.649,316.493 884.428,336.406Z" style="fill:rgb(230,230,230);fill-rule:nonzero;"/>
        </g>
        <g transform="matrix(0.557837,-0.552554,0.552624,0.557766,-223.224,433.175)">
            <rect x="889.24" y="437.969" width="1.571" height="45.012" style="fill:rgb(63,61,86);"/>
        </g>
        <g transform="matrix(0.384118,-0.68477,0.684857,0.384069,0.066367,550.115)">
            <rect x="862.252" y="267.418" width="45.012" height="1.571" style="fill:rgb(63,61,86);"/>
        </g>
        <g transform="matrix(0.785223,0,0,0.785124,-171.134,-163.306)">
            <path d="M929.569,488.815L882.819,488.815C881.101,488.814 879.687,487.4 879.685,485.682L879.685,479.098C879.687,477.379 881.101,475.966 882.819,475.964L929.569,475.964C931.288,475.966 932.702,477.379 932.704,479.098L932.704,485.682C932.702,487.4 931.288,488.814 929.569,488.815Z" style="fill:rgb(108,99,255);fill-rule:nonzero;"/>
        </g>
        <g transform="matrix(0.785223,0,0,0.785124,-171.134,-163.306)">
            <path d="M917.718,249.135L870.967,249.135C869.248,249.133 867.835,247.719 867.833,246.001L867.833,239.417C867.835,237.698 869.248,236.285 870.967,236.283L917.718,236.283C919.436,236.285 920.85,237.698 920.852,239.417L920.852,246.001C920.849,247.719 919.436,249.133 917.718,249.135Z" style="fill:rgb(230,230,230);fill-rule:nonzero;"/>
        </g>
        <g transform="matrix(0.785223,0,0,0.785124,-171.134,-163.306)">
            <path d="M628.437,353.873L295.068,353.873C292.071,353.869 289.606,351.404 289.603,348.408L289.603,214.465C289.606,211.468 292.071,209.003 295.068,209L628.437,209C631.434,209.004 633.898,211.468 633.902,214.465L633.902,348.408C633.898,351.404 631.434,353.869 628.437,353.873ZM295.068,211C293.168,211.002 291.605,212.565 291.603,214.465L291.603,348.408C291.605,350.308 293.168,351.871 295.068,351.873L628.437,351.873C630.337,351.87 631.9,350.308 631.902,348.408L631.902,214.465C631.9,212.565 630.337,211.002 628.437,211L295.068,211Z" style="fill:rgb(63,61,86);fill-rule:nonzero;"/>
        </g>
        <g transform="matrix(0.785223,0,0,0.785124,-171.134,-163.306)">
            <path d="M425.02,320.631L392.72,320.631C391.023,320.628 389.563,319.385 389.288,317.71C387.181,304.026 387.181,290.1 389.288,276.416C389.563,274.741 391.023,273.498 392.72,273.495L425.02,273.495C426.08,273.492 427.084,273.978 427.738,274.812C428.406,275.658 428.648,276.766 428.392,277.813C425.371,290.468 425.371,303.658 428.392,316.312C428.648,317.36 428.406,318.468 427.738,319.314C427.084,320.148 426.08,320.634 425.02,320.631Z" style="fill:rgb(230,230,230);fill-rule:nonzero;"/>
        </g>
        <g transform="matrix(0.785223,0,0,0.785124,-171.134,-163.306)">
            <path d="M533.165,320.631L500.865,320.631C499.168,320.627 497.708,319.385 497.433,317.71C495.326,304.026 495.326,290.1 497.433,276.416C497.708,274.741 499.168,273.499 500.865,273.495L533.165,273.495C534.225,273.492 535.229,273.978 535.883,274.812C536.551,275.658 536.793,276.767 536.537,277.813C533.516,290.468 533.516,303.658 536.537,316.312C536.793,317.359 536.551,318.468 535.883,319.313C535.229,320.148 534.225,320.634 533.165,320.631Z" style="fill:rgb(230,230,230);fill-rule:nonzero;"/>
        </g>
        <g transform="matrix(0.785223,0,0,0.785124,-171.134,-163.306)">
            <path d="M370.081,289.377L337.781,289.377C336.084,289.374 334.623,288.131 334.349,286.457C332.242,272.773 332.242,258.847 334.349,245.163C334.623,243.488 336.084,242.245 337.781,242.242L370.081,242.242C371.14,242.238 372.144,242.725 372.799,243.559C373.467,244.404 373.709,245.513 373.453,246.56C370.431,259.215 370.431,272.405 373.453,285.059C373.709,286.106 373.467,287.215 372.799,288.061C372.144,288.894 371.14,289.381 370.081,289.377Z" style="fill:rgb(108,99,255);fill-rule:nonzero;"/>
        </g>
        <g transform="matrix(0.785223,0,0,0.785124,-171.134,-163.306)">
            <path d="M479.314,289.377L447.014,289.377C445.954,289.381 444.95,288.894 444.296,288.06C443.627,287.215 443.386,286.106 443.642,285.059C446.663,272.404 446.663,259.215 443.642,246.56C443.386,245.513 443.627,244.405 444.296,243.559C444.95,242.725 445.954,242.238 447.014,242.242L479.314,242.242C481.011,242.245 482.471,243.488 482.746,245.163C484.853,258.846 484.853,272.773 482.746,286.457C482.471,288.131 481.011,289.374 479.314,289.377Z" style="fill:rgb(108,99,255);fill-rule:nonzero;"/>
        </g>
        <g transform="matrix(0.785223,0,0,0.785124,-171.134,-163.306)">
            <path d="M585.724,289.377L553.424,289.377C552.364,289.381 551.36,288.894 550.706,288.06C550.038,287.215 549.796,286.106 550.052,285.059C553.073,272.404 553.073,259.215 550.052,246.56C549.796,245.513 550.038,244.405 550.706,243.559C551.36,242.725 552.364,242.238 553.424,242.242L585.724,242.242C587.421,242.245 588.881,243.488 589.156,245.163C591.263,258.847 591.263,272.773 589.156,286.457C588.881,288.131 587.421,289.374 585.724,289.377Z" style="fill:rgb(255,101,132);fill-rule:nonzero;"/>
        </g>
        <g transform="matrix(0.785223,0,0,0.785124,-171.134,-163.306)">
            <path d="M405.88,527.466C400.895,526.45 397.282,522.026 397.282,516.939C397.282,515.583 397.538,514.24 398.038,512.98L353.703,417.788L376.194,411.467L412.741,507.141C416.5,508.928 418.905,512.734 418.905,516.896C418.905,522.822 414.03,527.697 408.104,527.697C407.357,527.697 406.611,527.62 405.88,527.466L405.88,527.466Z" style="fill:rgb(160,97,106);fill-rule:nonzero;"/>
        </g>
        <g transform="matrix(0.785223,0,0,0.785124,0,0)">
            <path d="M102.079,471.364L114.339,471.364L120.171,424.076L102.077,424.076L102.079,471.364Z" style="fill:rgb(160,97,106);fill-rule:nonzero;"/>
        </g>
        <g transform="matrix(-0.785223,3.59019e-05,-3.59064e-05,-0.785124,357.597,909.639)">
            <path d="M317.395,675.861L355.926,675.861L355.926,690.748L332.282,690.748C324.115,690.748 317.395,684.027 317.395,675.861L317.395,675.861Z" style="fill:rgb(47,46,65);fill-rule:nonzero;"/>
        </g>
        <g transform="matrix(0.785223,0,0,0.785124,0,0)">
            <path d="M38.354,458.148L49.623,462.975L73.605,421.804L56.972,414.68L38.354,458.148Z" style="fill:rgb(160,97,106);fill-rule:nonzero;"/>
        </g>
        <g transform="matrix(-0.7218,-0.30912,0.309159,-0.721709,26.7316,939.272)">
            <path d="M250.774,668.878L289.305,668.878L289.305,683.764L265.661,683.764C257.494,683.764 250.774,677.044 250.774,668.878L250.774,668.878Z" style="fill:rgb(47,46,65);fill-rule:nonzero;"/>
        </g>
        <g transform="matrix(0.785223,0,0,0.785124,0,0)">
            <circle cx="132.39" cy="140.57" r="24.561" style="fill:rgb(160,97,106);"/>
        </g>
        <g transform="matrix(0.785223,0,0,0.785124,-171.134,-163.306)">
            <path d="M332.589,667.803L319.093,665.232C316.805,664.808 315.209,662.667 315.459,660.353L324.408,573.094C324.42,572.975 324.426,572.856 324.426,572.737C324.426,570.816 322.846,569.237 320.926,569.237C319.529,569.237 318.259,570.074 317.709,571.358L278.638,662.525C277.93,664.177 276.298,665.252 274.502,665.252C273.872,665.252 273.249,665.12 272.674,664.864L261.697,659.985C259.584,659.056 258.518,656.638 259.255,654.45L285.978,574.283C286.053,574.058 286.105,573.825 286.133,573.589L294.807,500.342C294.999,498.715 296.065,497.318 297.582,496.701L324.971,485.575C326.623,484.904 328.525,485.275 329.804,486.52L364.374,520.181C365.468,521.241 365.949,522.788 365.649,524.281L337.845,664.259C337.422,666.355 335.566,667.877 333.428,667.882C333.147,667.882 332.866,667.856 332.589,667.803Z" style="fill:rgb(47,46,65);fill-rule:nonzero;"/>
        </g>
        <g transform="matrix(0.785223,0,0,0.785124,-171.134,-163.306)">
            <path d="M317.203,504.381C312.418,498.841 308.926,496.326 306.538,496.723C304.169,497.106 302.802,500.416 301.354,503.921C299.379,508.705 297.139,514.128 291.62,514.552C289.869,514.853 288.093,514.125 287.058,512.682C282.716,506.225 293.13,484.857 294.081,482.938L293.593,381.877C293.579,380.218 294.486,378.681 295.946,377.892C324.562,362.46 363.203,389.298 370.658,394.836C371.868,395.732 372.549,397.181 372.468,398.685C371.569,415.61 367.081,501.005 367.081,520.054C367.081,525.327 365.262,528.678 361.675,530.012C360.464,530.441 359.186,530.651 357.901,530.631C346.955,530.631 329.028,518.072 317.203,504.381Z" style="fill:rgb(204,204,204);fill-rule:nonzero;"/>
        </g>
        <g transform="matrix(0.785223,0,0,0.785124,-171.134,-163.306)">
            <path d="M357.139,455.309C355.926,454.52 355.17,453.188 355.116,451.742L353.178,406.477C353.171,406.309 353.167,406.141 353.167,405.974C353.167,399.529 358.47,394.226 364.914,394.226C369.776,394.226 374.157,397.244 375.89,401.785L390.397,439.802C391.274,442.108 390.102,444.728 387.797,445.61L361.216,455.754C359.867,456.277 358.344,456.11 357.139,455.309L357.139,455.309Z" style="fill:rgb(204,204,204);fill-rule:nonzero;"/>
        </g>
        <g transform="matrix(0.785223,0,0,0.785124,-171.134,-163.306)">
            <path d="M289.592,526.037C286.627,524.043 284.845,520.696 284.845,517.123C284.845,514.337 285.929,511.658 287.866,509.655L283.175,404.75L306.377,407.482L303.684,509.864C305.482,511.849 306.479,514.435 306.479,517.114C306.479,523.039 301.603,527.915 295.678,527.915C293.507,527.915 291.385,527.26 289.592,526.037L289.592,526.037Z" style="fill:rgb(160,97,106);fill-rule:nonzero;"/>
        </g>
        <g transform="matrix(0.785223,0,0,0.785124,-171.134,-163.306)">
            <path d="M273.481,432.685C272.628,431.516 272.397,430.001 272.862,428.631L287.19,385.648C288.784,380.864 293.291,377.616 298.334,377.616C304.778,377.616 310.081,382.918 310.081,389.363L310.081,430.054C310.079,432.521 308.049,434.551 305.581,434.554L277.131,434.554C275.684,434.562 274.32,433.863 273.481,432.685Z" style="fill:rgb(204,204,204);fill-rule:nonzero;"/>
        </g>
        <g transform="matrix(0.785223,0,0,0.785124,-171.134,-163.306)">
            <path d="M334.472,365.089C332.58,366.572 329.857,366.436 328.121,364.773C322.857,359.852 318.415,353.969 316.167,347.155C313.59,339.347 314.248,330.202 319.182,323.625C323.353,318.065 329.954,314.923 336.456,312.468C338.995,311.394 341.676,310.698 344.416,310.4C347.183,310.113 349.958,310.893 352.171,312.578C354.374,314.337 355.28,317.282 354.446,319.975C357.781,316.947 361.849,314.842 366.248,313.87C369.031,313.132 371.974,313.254 374.688,314.22C378.459,315.77 380.908,319.558 382.037,323.476C382.97,326.465 383.046,329.656 382.255,332.685C381.434,335.73 379.359,338.287 376.549,339.718C373.099,341.343 369.005,340.729 365.398,339.492C361.79,338.255 358.37,336.429 354.639,335.639C350.908,334.85 346.6,335.311 343.96,338.063C342.101,340.001 341.369,342.727 340.704,345.329L337.245,358.863C336.863,360.834 336.133,362.722 335.088,364.437C334.913,364.681 334.706,364.9 334.472,365.089Z" style="fill:rgb(47,46,65);fill-rule:nonzero;"/>
        </g>
        <g transform="matrix(0.785223,0,0,0.785124,-171.134,-163.306)">
            <path d="M434.081,560.377L401.781,560.377C400.084,560.374 398.623,559.131 398.349,557.457C396.242,543.773 396.242,529.847 398.349,516.163C398.623,514.488 400.084,513.245 401.781,513.242L434.081,513.242C435.141,513.238 436.145,513.725 436.799,514.559C437.467,515.405 437.709,516.513 437.453,517.56C434.432,530.215 434.432,543.405 437.453,556.059C437.709,557.106 437.467,558.215 436.799,559.06C436.145,559.894 435.141,560.381 434.081,560.377Z" style="fill:rgb(108,99,255);fill-rule:nonzero;"/>
        </g>
        <g transform="matrix(0.785223,0,0,0.785124,-171.134,-163.306)">
            <path d="M379.943,692L218.943,692C218.394,692 217.943,691.549 217.943,691C217.943,690.451 218.394,690 218.943,690L379.943,690C380.491,690 380.943,690.451 380.943,691C380.943,691.549 380.491,692 379.943,692Z" style="fill:rgb(63,61,86);fill-rule:nonzero;"/>
        </g>
    </g>
</svg>
