<?xml version="1.0" encoding="UTF-8" standalone="no"?>
<!DOCTYPE svg PUBLIC "-//W3C//DTD SVG 1.1//EN" "http://www.w3.org/Graphics/SVG/1.1/DTD/svg11.dtd">
<svg width="100%" height="100%" viewBox="0 0 400 276" version="1.1" xmlns="http://www.w3.org/2000/svg" xmlns:xlink="http://www.w3.org/1999/xlink" xml:space="preserve" xmlns:serif="http://www.serif.com/" style="fill-rule:evenodd;clip-rule:evenodd;stroke-linejoin:round;stroke-miterlimit:2;">
    <g transform="matrix(0.539915,0,0,0.539405,-123.949,-104.732)">
        <path d="M963.428,387.837L963.228,387.837L848.428,436.857L691.359,503.927C690.12,504.449 688.723,504.456 687.478,503.947L525.428,436.717L407.808,387.917L407.629,387.837L407.428,387.837C403.59,387.842 400.433,390.999 400.428,394.837L400.428,698.837C400.433,702.676 403.59,705.833 407.428,705.837L963.428,705.837C967.267,705.833 970.424,702.676 970.428,698.837L970.428,394.837C970.424,390.999 967.267,387.842 963.428,387.837Z" style="fill:white;fill-rule:nonzero;"/>
    </g>
    <g transform="matrix(0.539915,0,0,0.539405,-123.949,-104.732)">
        <path d="M965.428,389.837C965.224,389.838 965.024,389.775 964.857,389.658L688.298,197.055C686.578,195.863 684.285,195.867 682.569,197.064L408.003,389.656C407.834,389.774 407.634,389.838 407.428,389.838C406.88,389.838 406.428,389.386 406.428,388.837C406.428,388.512 406.587,388.206 406.854,388.019L681.421,195.427C683.823,193.75 687.033,193.745 689.441,195.414L966,388.017C966.268,388.203 966.428,388.51 966.428,388.837C966.428,389.386 965.977,389.837 965.428,389.837C965.428,389.837 965.428,389.837 965.428,389.837L965.428,389.837Z" style="fill:rgb(63,61,86);fill-rule:nonzero;"/>
    </g>
    <g transform="matrix(0.539915,0,0,0.539405,0,0)">
        <path d="M194.121,202.502L456.132,8.319L720.132,216.319L469.632,364.819L333.632,333.819L194.121,202.502Z" style="fill:rgb(230,230,230);fill-rule:nonzero;"/>
    </g>
    <g transform="matrix(0.539915,0,0,0.539405,-123.949,-104.732)">
        <path d="M574.684,650.704L445.244,650.704C445.241,650.704 445.238,650.704 445.236,650.704C441.918,650.704 439.188,647.974 439.188,644.656C439.188,641.339 441.918,638.609 445.236,638.609C445.238,638.609 445.241,638.609 445.244,638.609L574.684,638.609C574.687,638.609 574.689,638.609 574.692,638.609C578.009,638.609 580.739,641.339 580.739,644.656C580.739,647.974 578.009,650.704 574.692,650.704C574.689,650.704 574.687,650.704 574.684,650.704Z" style="fill:rgb(108,99,255);fill-rule:nonzero;"/>
    </g>
    <g transform="matrix(0.539915,0,0,0.539405,-123.949,-104.732)">
        <path d="M491.684,624.704L445.244,624.704C445.241,624.704 445.238,624.704 445.236,624.704C441.918,624.704 439.188,621.974 439.188,618.656C439.188,615.339 441.918,612.609 445.236,612.609C445.238,612.609 445.241,612.609 445.244,612.609L491.684,612.609C491.687,612.609 491.689,612.609 491.692,612.609C495.009,612.609 497.739,615.339 497.739,618.656C497.739,621.974 495.009,624.704 491.692,624.704C491.689,624.704 491.687,624.704 491.684,624.704Z" style="fill:rgb(108,99,255);fill-rule:nonzero;"/>
    </g>
    <g transform="matrix(0.539915,0,0,0.539405,-123.949,-104.732)">
        <path d="M689.389,504.822C688.405,504.823 687.43,504.632 686.519,504.26L524.929,437.211L524.929,227.337C524.933,223.499 528.09,220.342 531.929,220.337L841.929,220.337C845.767,220.342 848.924,223.499 848.929,227.337L848.929,437.358L848.625,437.488L692.345,504.227C691.409,504.621 690.404,504.823 689.389,504.822Z" style="fill:white;fill-rule:nonzero;"/>
    </g>
    <g transform="matrix(0.539915,0,0,0.539405,-123.949,-104.732)">
        <path d="M689.389,505.322C688.34,505.323 687.3,505.119 686.329,504.723L524.429,437.545L524.429,227.337C524.433,223.225 527.816,219.842 531.929,219.837L841.929,219.837C846.041,219.842 849.424,223.225 849.429,227.337L849.429,437.688L692.541,504.687C691.543,505.107 690.471,505.323 689.389,505.322ZM526.429,436.209L687.092,502.874C688.59,503.482 690.269,503.472 691.76,502.846L847.429,436.367L847.429,227.337C847.425,224.321 844.944,221.841 841.929,221.837L531.929,221.837C528.913,221.841 526.432,224.321 526.429,227.337L526.429,436.209Z" style="fill:rgb(63,61,86);fill-rule:nonzero;"/>
    </g>
    <g transform="matrix(0.539915,0,0,0.539405,-123.949,-104.732)">
        <path d="M963.428,387.837L963.228,387.837L848.428,436.857L691.359,503.927C690.12,504.449 688.723,504.456 687.478,503.947L525.428,436.717L407.808,387.917L407.629,387.837L407.428,387.837C403.59,387.842 400.433,390.999 400.428,394.837L400.428,698.837C400.433,702.676 403.59,705.833 407.428,705.837L963.428,705.837C967.267,705.833 970.424,702.676 970.428,698.837L970.428,394.837C970.424,390.999 967.267,387.842 963.428,387.837ZM968.428,698.837C968.427,701.58 966.171,703.836 963.428,703.837L407.428,703.837C404.686,703.836 402.429,701.58 402.428,698.837L402.428,394.837C402.432,392.167 404.57,389.945 407.238,389.837L525.428,438.877L686.709,505.797C688.454,506.507 690.411,506.497 692.149,505.767L848.428,439.027L963.629,389.837C966.292,389.952 968.422,392.172 968.428,394.837L968.428,698.837Z" style="fill:rgb(63,61,86);fill-rule:nonzero;"/>
    </g>
    <g transform="matrix(0.539915,0,0,0.539405,-123.949,-104.732)">
        <path d="M664.232,298.789L554.232,298.789C549.843,298.789 546.232,295.177 546.232,290.789C546.232,286.4 549.843,282.789 554.232,282.789L664.232,282.789C668.62,282.789 672.232,286.4 672.232,290.789C672.232,295.177 668.62,298.789 664.232,298.789Z" style="fill:rgb(108,99,255);fill-rule:nonzero;"/>
    </g>
    <g transform="matrix(0.539915,0,0,0.539405,-123.949,-104.732)">
        <path d="M607.232,264.789L554.232,264.789C549.843,264.789 546.232,261.177 546.232,256.789C546.232,252.4 549.843,248.789 554.232,248.789L607.232,248.789C611.62,248.789 615.232,252.4 615.232,256.789C615.232,261.177 611.62,264.789 607.232,264.789Z" style="fill:rgb(108,99,255);fill-rule:nonzero;"/>
    </g>
    <g transform="matrix(0.539915,0,0,0.539405,-123.949,-104.732)">
        <path d="M769.2,378.789L601.2,378.789C596.811,378.789 593.2,375.177 593.2,370.789C593.2,366.4 596.811,362.789 601.2,362.789L769.2,362.789C773.589,362.789 777.2,366.4 777.2,370.789C777.2,375.177 773.589,378.789 769.2,378.789Z" style="fill:rgb(204,204,204);fill-rule:nonzero;"/>
    </g>
    <g transform="matrix(0.539915,0,0,0.539405,-123.949,-104.732)">
        <path d="M769.2,415.789L601.2,415.789C596.811,415.789 593.2,412.177 593.2,407.789C593.2,403.4 596.811,399.789 601.2,399.789L769.2,399.789C773.589,399.789 777.2,403.4 777.2,407.789C777.2,412.177 773.589,415.789 769.2,415.789Z" style="fill:rgb(204,204,204);fill-rule:nonzero;"/>
    </g>
    <g transform="matrix(0.539915,0,0,0.539405,-123.949,-104.732)">
        <path d="M270.52,425.141C268.385,425.137 266.531,423.618 266.108,421.525L262.47,403.386C261.989,400.991 261.747,398.553 261.747,396.11C261.747,375.812 278.45,359.11 298.748,359.11C316.31,359.11 331.572,371.614 335.025,388.834L338.663,406.973C339.146,409.393 337.555,411.782 335.137,412.27L271.406,425.053C271.114,425.111 270.817,425.141 270.52,425.141Z" style="fill:rgb(47,46,65);fill-rule:nonzero;"/>
    </g>
    <g transform="matrix(0.539915,0,0,0.539405,0,0)">
        <path d="M154.088,501.059L142.656,501.058L137.22,456.962L154.092,456.963L154.088,501.059Z" style="fill:rgb(160,97,106);fill-rule:nonzero;"/>
    </g>
    <g transform="matrix(0.539915,0,0,0.539405,0,0)">
        <path d="M134.49,497.791L156.538,497.791L156.538,511.673L120.608,511.673C120.608,504.058 126.875,497.791 134.49,497.791Z" style="fill:rgb(47,46,65);fill-rule:nonzero;"/>
    </g>
    <g transform="matrix(0.539915,0,0,0.539405,0,0)">
        <path d="M34.969,500.944L24.442,496.486L36.63,453.76L52.166,460.341L34.969,500.944Z" style="fill:rgb(160,97,106);fill-rule:nonzero;"/>
    </g>
    <g transform="matrix(0.497162,0.210369,-0.210568,0.496692,32.4945,-127.5)">
        <path d="M244.738,685.499L266.786,685.499L266.786,699.381L230.856,699.381C230.856,699.381 230.856,699.381 230.856,699.381C230.856,691.765 237.123,685.499 244.738,685.499Z" style="fill:rgb(47,46,65);fill-rule:nonzero;"/>
    </g>
    <g transform="matrix(0.539915,0,0,0.539405,0,0)">
        <circle cx="70.224" cy="201.872" r="24.561" style="fill:rgb(160,97,106);"/>
    </g>
    <g transform="matrix(0.539915,0,0,0.539405,-123.949,-104.732)">
        <path d="M300.958,507.766L300.706,506.948C294.013,485.193 287.095,462.708 280.168,441.322L279.98,440.745L280.406,440.312C291.159,429.374 311.303,425.011 327.265,430.166C343.329,435.352 354.399,449.897 353.015,464.001C352.279,472.472 354.556,480.936 359.443,487.894L360.084,488.824L359.082,489.347C341.137,498.581 321.78,504.765 301.806,507.643L300.958,507.766Z" style="fill:rgb(63,61,86);fill-rule:nonzero;"/>
    </g>
    <g transform="matrix(0.539915,0,0,0.539405,-123.949,-104.732)">
        <path d="M271.336,687.183C270.46,687.182 269.6,686.95 268.842,686.51L255.575,678.848C253.33,677.567 252.439,674.738 253.545,672.402L283.026,602.45L305.556,500.425L346.617,485.495L346.99,485.666C391.012,505.888 387.609,650.831 386.48,679.682C386.375,682.181 384.413,684.237 381.922,684.458L369.574,686.072C366.986,686.3 364.623,684.493 364.165,681.935L338.958,569.281C338.906,568.843 338.57,568.488 338.136,568.413C337.719,568.333 337.296,568.532 337.093,568.905L275.708,684.62C275.055,685.793 273.955,686.653 272.659,687.004C272.228,687.122 271.783,687.182 271.336,687.183Z" style="fill:rgb(47,46,65);fill-rule:nonzero;"/>
    </g>
    <g transform="matrix(0.539915,0,0,0.539405,-123.949,-104.732)">
        <path d="M286.083,584.377C287.153,582.816 287.727,580.966 287.727,579.073C287.727,575.396 285.563,572.044 282.212,570.529L282.884,549.111L269.968,545.529L269.445,575.788C269.048,576.846 268.846,577.966 268.846,579.095C268.846,584.267 273.101,588.523 278.273,588.523C281.4,588.523 284.331,586.967 286.083,584.377L286.083,584.377Z" style="fill:rgb(160,97,106);fill-rule:nonzero;"/>
    </g>
    <g transform="matrix(0.539915,0,0,0.539405,-123.949,-104.732)">
        <path d="M269.636,561.738L268.878,561.734C266.301,561.716 264.143,559.698 263.955,557.127C262.716,541.176 258.912,486.841 261.975,457.383C263.473,447.242 272.266,439.652 282.517,439.652C283.738,439.652 284.958,439.76 286.161,439.974L286.949,440.148L286.943,440.957C286.663,479.715 286.681,518.247 286.698,555.51C286.704,557.846 285.072,559.889 282.793,560.4C278.465,561.295 274.056,561.744 269.636,561.738Z" style="fill:rgb(108,99,255);fill-rule:nonzero;"/>
    </g>
    <g transform="matrix(0.539915,0,0,0.539405,-123.949,-104.732)">
        <path d="M299.038,608.221C292.23,608.192 286.442,603.047 285.615,596.29L286.703,506.838L268.924,461.869C267.389,449.747 274.458,438.067 285.908,433.805L290.661,432.022C291.479,431.716 292.346,431.559 293.219,431.559C296.26,431.559 298.995,433.462 300.051,436.313L318.384,485.811L318.388,485.883C319.66,505.583 325.397,603.632 313.958,606.557C309.111,607.693 304.146,608.251 299.168,608.22L299.038,608.221Z" style="fill:rgb(108,99,255);fill-rule:nonzero;"/>
    </g>
    <g transform="matrix(0.539915,0,0,0.539405,-123.949,-104.732)">
        <path d="M404.655,550.605C401.124,549.173 398.802,545.726 398.802,541.916C398.802,540.148 399.302,538.416 400.244,536.92L387.87,519.426L396.667,509.314L413.795,534.264C416.235,536.036 417.683,538.876 417.683,541.892C417.683,547.064 413.427,551.32 408.255,551.32C407.02,551.32 405.796,551.077 404.655,550.605L404.655,550.605Z" style="fill:rgb(160,97,106);fill-rule:nonzero;"/>
    </g>
    <g transform="matrix(0.539915,0,0,0.539405,-123.949,-104.732)">
        <path d="M392.298,528.123C390.988,528.084 389.775,527.409 389.052,526.316L388.987,526.217C368.512,495.227 347.34,463.182 325.882,431.237L325.651,430.893L325.946,430.602C329.747,427.053 334.838,425.207 340.03,425.494C345.38,425.592 350.442,427.966 353.937,432.017C372.689,454.833 399.451,502.186 407.206,516.157C408.216,517.946 407.675,520.239 405.972,521.389C402.164,523.981 398.085,526.151 393.807,527.86C393.327,528.049 392.814,528.138 392.298,528.123Z" style="fill:rgb(108,99,255);fill-rule:nonzero;"/>
    </g>
    <g transform="matrix(0.539915,0,0,0.539405,-123.949,-104.732)">
        <path d="M385.424,588.285C373.16,588.292 329.28,503.802 320.609,486.865L320.534,486.66L310.941,434.832C310.86,434.394 310.819,433.95 310.819,433.506C310.819,429.997 313.355,426.962 316.808,426.338L321.804,425.435C333.821,423.232 345.874,429.644 350.763,440.841L363.298,493.529L405.211,564.741C408.047,571.027 405.672,578.526 399.734,582.033C395.474,584.609 390.924,586.673 386.179,588.179C385.933,588.25 385.679,588.286 385.424,588.285L385.424,588.285Z" style="fill:rgb(108,99,255);fill-rule:nonzero;"/>
    </g>
    <g transform="matrix(0.539915,0,0,0.539405,-123.949,-104.732)">
        <path d="M318.871,396.247L269.371,396.247L269.371,390.247C269.387,376.538 280.662,365.262 294.371,365.247L298.371,365.247C312.08,365.262 323.356,376.538 323.371,390.247L323.371,391.747C323.368,394.215 321.339,396.244 318.871,396.247Z" style="fill:rgb(47,46,65);fill-rule:nonzero;"/>
    </g>
</svg>
