<?xml version="1.0" encoding="UTF-8" standalone="no"?>
<!DOCTYPE svg PUBLIC "-//W3C//DTD SVG 1.1//EN" "http://www.w3.org/Graphics/SVG/1.1/DTD/svg11.dtd">
<svg width="100%" height="100%" viewBox="0 0 600 407" version="1.1" xmlns="http://www.w3.org/2000/svg" xmlns:xlink="http://www.w3.org/1999/xlink" xml:space="preserve" xmlns:serif="http://www.serif.com/" style="fill-rule:evenodd;clip-rule:evenodd;stroke-linejoin:round;stroke-miterlimit:2;">
    <g transform="matrix(0.583944,0,0,0.584721,0,0)">
        <circle cx="696.248" cy="355.702" r="76.752" style="fill:rgb(108,99,255);fill-opacity:0.4;"/>
    </g>
    <g transform="matrix(0.583944,0,0,0.584721,0,0)">
        <rect x="270" y="461.902" width="428" height="116" style="fill:rgb(63,61,86);"/>
    </g>
    <g transform="matrix(0.583944,0,0,0.584721,-50.3664,-59.6243)">
        <path d="M756.839,276.477L739.749,284.565L754.874,273.255C752.416,269.418 749.654,265.784 746.616,262.388L672.499,280.81L739.447,255.271C736.388,252.572 733.139,250.096 729.726,247.861L616.789,266.052C604.8,281.044 598.261,299.677 598.252,318.873L768.252,318.873C768.245,303.983 764.308,289.357 756.839,276.477Z" style="fill:rgb(242,242,242);fill-rule:nonzero;"/>
    </g>
    <g transform="matrix(0.583944,0,0,0.584721,-50.3664,-59.6243)">
        <path d="M770.375,152.166C702.445,119.034 627.832,101.864 552.252,101.971C398.422,101.971 260.891,171.723 169.542,281.319C325.968,247.045 598.319,187.714 770.375,152.166Z" style="fill:rgb(242,242,242);fill-rule:nonzero;"/>
    </g>
    <g transform="matrix(0.583944,0,0,0.584721,0,0)">
        <rect x="0" y="693.902" width="1020" height="2" style="fill:rgb(47,46,65);"/>
    </g>
    <g transform="matrix(0.583944,0,0,0.584721,-50.3664,-59.6243)">
        <path d="M682.116,318.873L624.252,232.922C624.252,232.922 711.883,263.515 701.938,318.873L682.116,318.873Z" style="fill:rgb(63,61,86);fill-rule:nonzero;"/>
    </g>
    <g transform="matrix(0.583944,0,0,0.584721,-50.3664,-59.6243)">
        <path d="M684.388,318.873L742.252,232.922C742.252,232.922 654.621,263.515 664.566,318.873L684.388,318.873Z" style="fill:rgb(108,99,255);fill-rule:nonzero;"/>
    </g>
    <g transform="matrix(0.583944,0,0,0.584721,-50.3664,-59.6243)">
        <path d="M784.752,797.873L355.752,797.873L355.752,157.873L784.752,157.873L784.752,797.873ZM357.752,795.873L782.752,795.873L782.752,159.873L357.752,159.873L357.752,795.873Z" style="fill:rgb(47,46,65);fill-rule:nonzero;"/>
    </g>
    <g transform="matrix(0.583944,0,0,0.584721,0,0)">
        <rect x="271" y="71.083" width="427" height="2" style="fill:rgb(47,46,65);"/>
    </g>
    <g transform="matrix(0.583944,0,0,0.584721,0,0)">
        <circle cx="282" cy="63.902" r="4" style="fill:rgb(108,99,255);"/>
    </g>
    <g transform="matrix(0.583944,0,0,0.584721,0,0)">
        <circle cx="293" cy="63.902" r="4" style="fill:rgb(108,99,255);"/>
    </g>
    <g transform="matrix(0.583944,0,0,0.584721,0,0)">
        <circle cx="304" cy="63.902" r="4" style="fill:rgb(108,99,255);"/>
    </g>
    <g transform="matrix(0.583944,0,0,0.584721,0,0)">
        <rect x="286" y="84.902" width="18" height="10" style="fill:rgb(108,99,255);"/>
    </g>
    <g transform="matrix(0.583944,0,0,0.584721,0,0)">
        <rect x="286" y="163.902" width="88" height="10" style="fill:rgb(108,99,255);"/>
    </g>
    <g transform="matrix(-0.583944,4.47729e-16,-4.47134e-16,-0.584721,801.318,164.759)">
        <rect x="685.252" y="186.873" width="88" height="10" style="fill:rgb(242,242,242);"/>
    </g>
    <g transform="matrix(0.583944,0,0,0.584721,0,0)">
        <rect x="286" y="180.902" width="148" height="6" style="fill:rgb(242,242,242);"/>
    </g>
    <g transform="matrix(0.583944,0,0,0.584721,0,0)">
        <rect x="286" y="193.902" width="140" height="6" style="fill:rgb(242,242,242);"/>
    </g>
    <g transform="matrix(0.583944,0,0,0.584721,0,0)">
        <rect x="286" y="206.902" width="102" height="6" style="fill:rgb(242,242,242);"/>
    </g>
    <g transform="matrix(0.583944,0,0,0.584721,0,0)">
        <rect x="320" y="384.902" width="58" height="6" style="fill:rgb(242,242,242);"/>
    </g>
    <g transform="matrix(0.583944,0,0,0.584721,0,0)">
        <rect x="320" y="397.902" width="54.865" height="6" style="fill:rgb(242,242,242);"/>
    </g>
    <g transform="matrix(0.583944,0,0,0.584721,0,0)">
        <rect x="320" y="410.902" width="39.973" height="6" style="fill:rgb(242,242,242);"/>
    </g>
    <g transform="matrix(0.583944,0,0,0.584721,0,0)">
        <rect x="455" y="384.902" width="58" height="6" style="fill:rgb(242,242,242);"/>
    </g>
    <g transform="matrix(0.583944,0,0,0.584721,0,0)">
        <rect x="455" y="397.902" width="54.865" height="6" style="fill:rgb(242,242,242);"/>
    </g>
    <g transform="matrix(0.583944,0,0,0.584721,0,0)">
        <rect x="455" y="410.902" width="39.973" height="6" style="fill:rgb(242,242,242);"/>
    </g>
    <g transform="matrix(0.583944,0,0,0.584721,0,0)">
        <rect x="595" y="384.902" width="58" height="6" style="fill:rgb(242,242,242);"/>
    </g>
    <g transform="matrix(0.583944,0,0,0.584721,0,0)">
        <rect x="595" y="397.902" width="54.865" height="6" style="fill:rgb(242,242,242);"/>
    </g>
    <g transform="matrix(0.583944,0,0,0.584721,0,0)">
        <rect x="595" y="410.902" width="39.973" height="6" style="fill:rgb(242,242,242);"/>
    </g>
    <g transform="matrix(0.583944,0,0,0.584721,0,0)">
        <rect x="410" y="611.902" width="88" height="10" style="fill:rgb(108,99,255);"/>
    </g>
    <g transform="matrix(0.583944,0,0,0.584721,0,0)">
        <rect x="410" y="628.902" width="148" height="6" style="fill:rgb(242,242,242);"/>
    </g>
    <g transform="matrix(0.583944,0,0,0.584721,0,0)">
        <rect x="410" y="641.902" width="140" height="6" style="fill:rgb(242,242,242);"/>
    </g>
    <g transform="matrix(0.583944,0,0,0.584721,0,0)">
        <rect x="410" y="654.902" width="102" height="6" style="fill:rgb(242,242,242);"/>
    </g>
    <g transform="matrix(0.583944,0,0,0.584721,0,0)">
        <rect x="312.5" y="271.902" width="348" height="2" style="fill:rgb(108,99,255);fill-opacity:0.3;"/>
    </g>
    <g transform="matrix(0.583944,0,0,0.584721,0,0)">
        <rect x="312" y="306.902" width="74" height="66" style="fill:rgb(108,99,255);fill-opacity:0.3;"/>
    </g>
    <g transform="matrix(0.583944,0,0,0.584721,0,0)">
        <rect x="447" y="306.902" width="74" height="66" style="fill:rgb(63,61,86);"/>
    </g>
    <g transform="matrix(0.583944,0,0,0.584721,0,0)">
        <rect x="587" y="306.902" width="74" height="66" style="fill:rgb(63,61,86);"/>
    </g>
    <g transform="matrix(0.583944,0,0,0.584721,-50.3664,-59.6243)">
        <path d="M560.611,474.595L559.634,474.576C559.655,473.495 560.266,448.015 570.297,440.972L570.857,441.771C561.231,448.53 560.616,474.335 560.611,474.595Z" style="fill:rgb(108,99,255);fill-rule:nonzero;"/>
    </g>
    <g transform="matrix(0.583944,0,0,0.584721,0,0)">
        <circle cx="489.206" cy="333.798" r="4.881" style="fill:rgb(108,99,255);"/>
    </g>
    <g transform="matrix(0.583944,0,0,0.584721,-50.3664,-59.6243)">
        <path d="M574.471,453.004C571.932,453.802 569.228,453.918 566.63,453.343C569.994,449.06 575.585,447.142 580.87,448.458C579.172,450.508 576.965,452.075 574.471,453.004Z" style="fill:rgb(108,99,255);fill-rule:nonzero;"/>
    </g>
    <g transform="matrix(0.583944,0,0,0.584721,-50.3664,-59.6243)">
        <path d="M700.611,474.595L699.634,474.576C699.655,473.495 700.266,448.015 710.297,440.972L710.857,441.771C701.231,448.53 700.616,474.335 700.611,474.595Z" style="fill:rgb(108,99,255);fill-rule:nonzero;"/>
    </g>
    <g transform="matrix(0.583944,0,0,0.584721,0,0)">
        <circle cx="629.206" cy="333.798" r="4.881" style="fill:rgb(108,99,255);"/>
    </g>
    <g transform="matrix(0.583944,0,0,0.584721,-50.3664,-59.6243)">
        <path d="M714.471,453.004C711.932,453.802 709.228,453.918 706.63,453.343C709.994,449.06 715.585,447.142 720.87,448.458C719.172,450.508 716.965,452.075 714.471,453.004Z" style="fill:rgb(108,99,255);fill-rule:nonzero;"/>
    </g>
    <g transform="matrix(0.583944,0,0,0.584721,0,0)">
        <rect x="286" y="498.902" width="88" height="10" style="fill:rgb(108,99,255);"/>
    </g>
    <g transform="matrix(0.583944,0,0,0.584721,0,0)">
        <rect x="286" y="515.902" width="148" height="6" style="fill:rgb(242,242,242);"/>
    </g>
    <g transform="matrix(0.583944,0,0,0.584721,0,0)">
        <rect x="286" y="528.902" width="140" height="6" style="fill:rgb(242,242,242);"/>
    </g>
    <g transform="matrix(0.583944,0,0,0.584721,0,0)">
        <rect x="286" y="541.902" width="102" height="6" style="fill:rgb(242,242,242);"/>
    </g>
    <g transform="matrix(0.583944,0,0,0.584721,0,0)">
        <circle cx="611.752" cy="512.702" r="31.248" style="fill:rgb(108,99,255);fill-opacity:0.4;"/>
    </g>
    <g transform="matrix(0.583944,0,0,0.584721,0,0)">
        <circle cx="553.92" cy="527.626" r="21.92" style="fill:rgb(108,99,255);fill-opacity:0.4;"/>
    </g>
    <g transform="matrix(0.583944,0,0,0.584721,0,0)">
        <circle cx="167.5" cy="582.402" r="79" style="fill:rgb(47,46,65);"/>
    </g>
    <g transform="matrix(0.583944,0,0,0.584721,0,0)">
        <rect x="131.5" y="644.402" width="24" height="43" style="fill:rgb(47,46,65);"/>
    </g>
    <g transform="matrix(0.583944,0,0,0.584721,0,0)">
        <rect x="179.5" y="644.402" width="24" height="43" style="fill:rgb(47,46,65);"/>
    </g>
    <g transform="matrix(0.583944,0,0,0.584721,0,0)">
        <ellipse cx="151.5" cy="687.902" rx="20" ry="7.5" style="fill:rgb(47,46,65);"/>
    </g>
    <g transform="matrix(0.583944,0,0,0.584721,0,0)">
        <ellipse cx="199.5" cy="686.902" rx="20" ry="7.5" style="fill:rgb(47,46,65);"/>
    </g>
    <g transform="matrix(0.583944,0,0,0.584721,0,0)">
        <circle cx="169.5" cy="562.402" r="27" style="fill:white;"/>
    </g>
    <g transform="matrix(0.583944,0,0,0.584721,0,0)">
        <circle cx="169.5" cy="550.402" r="9" style="fill:rgb(63,61,86);"/>
    </g>
    <g transform="matrix(0.583944,0,0,0.584721,-50.3664,-59.6243)">
        <path d="M177.119,610.905C170.741,582.337 191.131,553.471 222.663,546.43C254.196,539.389 284.929,556.84 291.307,585.408C297.686,613.975 276.789,624.511 245.257,631.552C213.725,638.593 183.498,639.472 177.119,610.905Z" style="fill:rgb(108,99,255);fill-rule:nonzero;"/>
    </g>
    <g transform="matrix(0.246076,-0.530268,0.529563,0.246403,-260.562,308.591)">
        <ellipse cx="313.528" cy="596.957" rx="39.5" ry="12.4" style="fill:rgb(47,46,65);"/>
    </g>
    <g transform="matrix(0.516102,-0.273548,0.273184,0.516788,-208.569,28.6595)">
        <ellipse cx="168.528" cy="620.957" rx="12.4" ry="39.5" style="fill:rgb(47,46,65);"/>
    </g>
    <g transform="matrix(0.544872,-0.210291,0.210012,0.545597,-146.345,155.43)">
        <ellipse cx="906.255" cy="625.623" rx="12.4" ry="39.5" style="fill:rgb(47,46,65);"/>
    </g>
    <g transform="matrix(0.583944,0,0,0.584721,0,0)">
        <circle cx="893.19" cy="583.104" r="79" style="fill:rgb(47,46,65);"/>
    </g>
    <g transform="matrix(-0.583944,0.00163722,-0.00163504,-0.584721,1123.07,837.454)">
        <rect x="991.675" y="747.007" width="24" height="43" style="fill:rgb(47,46,65);"/>
    </g>
    <g transform="matrix(-0.583942,0.00163785,-0.00163567,-0.584718,1067.01,837.69)">
        <rect x="943.676" y="747.141" width="24" height="43" style="fill:rgb(47,46,65);"/>
    </g>
    <g transform="matrix(0.583942,-0.00163785,0.00163567,0.584718,-51.6571,-57.9917)">
        <ellipse cx="995.737" cy="790.529" rx="20" ry="7.5" style="fill:rgb(47,46,65);"/>
    </g>
    <g transform="matrix(0.583942,-0.00163785,0.00163567,0.584718,-51.6558,-58.0703)">
        <ellipse cx="947.734" cy="789.664" rx="20" ry="7.5" style="fill:rgb(47,46,65);"/>
    </g>
    <g transform="matrix(0.583944,0,0,0.584721,0,0)">
        <circle cx="891.134" cy="563.109" r="27" style="fill:white;"/>
    </g>
    <g transform="matrix(0.583944,0,0,0.584721,0,0)">
        <circle cx="891.134" cy="563.109" r="9" style="fill:rgb(63,61,86);"/>
    </g>
    <g transform="matrix(0.583944,0,0,0.584721,-50.3664,-59.6243)">
        <path d="M1055.87,611.392C1062.17,582.807 1041.7,553.998 1010.14,547.045C978.592,540.093 947.908,557.63 941.609,586.215C935.31,614.8 956.237,625.278 987.789,632.231C1019.34,639.183 1049.57,639.978 1055.87,611.392Z" style="fill:rgb(108,99,255);fill-rule:nonzero;"/>
    </g>
    <g transform="matrix(0.526907,-0.252049,0.251714,0.527608,-152.586,246.663)">
        <ellipse cx="1068.32" cy="648.169" rx="39.5" ry="12.4" style="fill:rgb(47,46,65);"/>
    </g>
    <g transform="matrix(0.583944,0,0,0.584721,-50.3664,-59.6243)">
        <path d="M1018.33,713.466C1018.35,721.198 998.482,736.521 976.39,736.583C954.299,736.645 933.525,714.935 933.503,707.203C933.482,699.471 954.221,708.645 976.312,708.583C998.403,708.521 1018.3,705.734 1018.33,713.466Z" style="fill:white;fill-rule:nonzero;"/>
    </g>
    <g transform="matrix(0.583944,0,0,0.584721,0,0)">
        <circle cx="917.248" cy="468.702" r="110.248" style="fill:rgb(108,99,255);fill-opacity:0.4;"/>
    </g>
    <g transform="matrix(0.583944,0,0,0.584721,0,0)">
        <circle cx="190.405" cy="348.59" r="79" style="fill:rgb(47,46,65);"/>
    </g>
    <g transform="matrix(0.574605,0.104158,-0.10402,0.575369,6.82732,-79.4894)">
        <rect x="226.167" y="506.95" width="24" height="43" style="fill:rgb(47,46,65);"/>
    </g>
    <g transform="matrix(0.574605,0.104158,-0.10402,0.575369,8.15786,-84.3291)">
        <rect x="273.399" y="515.501" width="24" height="43" style="fill:rgb(47,46,65);"/>
    </g>
    <g transform="matrix(0.377386,-0.446205,0.445612,0.377888,-242.447,184.396)">
        <ellipse cx="285.687" cy="563.475" rx="7.5" ry="20" style="fill:rgb(47,46,65);"/>
    </g>
    <g transform="matrix(0.377386,-0.446205,0.445612,0.377888,-248.269,162.028)">
        <ellipse cx="239.439" cy="555.103" rx="7.5" ry="20" style="fill:rgb(47,46,65);"/>
    </g>
    <g transform="matrix(0.583944,0,0,0.584721,0,0)">
        <circle cx="195.936" cy="329.266" r="27" style="fill:white;"/>
    </g>
    <g transform="matrix(0.583944,0,0,0.584721,0,0)">
        <circle cx="207.032" cy="319.588" r="9" style="fill:rgb(63,61,86);"/>
    </g>
    <g transform="matrix(0.583944,0,0,0.584721,-50.3664,-59.6243)">
        <path d="M214.337,364.617C213.149,335.37 238.356,310.598 270.638,309.287C302.92,307.975 330.053,330.622 331.241,359.869C332.429,389.116 309.988,395.761 277.706,397.072C245.424,398.383 215.525,393.864 214.337,364.617Z" style="fill:rgb(108,99,255);fill-rule:nonzero;"/>
    </g>
    <g transform="matrix(0.569183,-0.130639,0.130466,0.56994,-102.111,-7.50559)">
        <ellipse cx="349.603" cy="436.168" rx="39.5" ry="12.4" style="fill:rgb(47,46,65);"/>
    </g>
    <g transform="matrix(0.569183,-0.130639,0.130466,0.56994,-107.765,-27.3832)">
        <ellipse cx="194.528" cy="461.957" rx="39.5" ry="12.4" style="fill:rgb(47,46,65);"/>
    </g>
    <g transform="matrix(0.583944,0,0,0.584721,-50.3664,-59.6243)">
        <path d="M254.96,481.694C254.768,482.752 254.672,483.825 254.672,484.9C254.672,494.775 262.797,502.9 272.672,502.9C281.341,502.9 288.839,496.637 290.384,488.107C292.155,478.324 284.591,474.863 274.809,473.092C265.027,471.321 256.73,471.912 254.96,481.694Z" style="fill:white;fill-rule:nonzero;"/>
    </g>
    <g transform="matrix(0.559348,0.167916,-0.167693,0.560092,28.2222,-119.738)">
        <rect x="380.752" y="374.373" width="74" height="66" style="fill:rgb(63,61,86);"/>
    </g>
    <g transform="matrix(0.583944,0,0,0.584721,-50.3664,-59.6243)">
        <path d="M399.12,435.948L398.19,435.649C398.521,434.62 406.422,410.388 418.053,406.523L418.361,407.449C407.199,411.159 399.199,435.701 399.12,435.948Z" style="fill:rgb(108,99,255);fill-rule:nonzero;"/>
    </g>
    <g transform="matrix(0.583944,0,0,0.584721,0,0)">
        <circle cx="338.24" cy="301.05" r="4.881" style="fill:rgb(108,99,255);"/>
    </g>
    <g transform="matrix(0.583944,0,0,0.584721,-50.3664,-59.6243)">
        <path d="M418.597,419.247C415.936,419.282 413.312,418.617 410.989,417.319C415.441,414.183 421.347,413.952 426.031,416.73C423.816,418.205 421.252,419.073 418.597,419.247Z" style="fill:rgb(108,99,255);fill-rule:nonzero;"/>
    </g>
</svg>
