<?xml version="1.0" encoding="UTF-8" standalone="no"?>
<!DOCTYPE svg PUBLIC "-//W3C//DTD SVG 1.1//EN" "http://www.w3.org/Graphics/SVG/1.1/DTD/svg11.dtd">
<svg width="100%" height="100%" viewBox="0 0 600 507" version="1.1" xmlns="http://www.w3.org/2000/svg" xmlns:xlink="http://www.w3.org/1999/xlink" xml:space="preserve" xmlns:serif="http://www.serif.com/" style="fill-rule:evenodd;clip-rule:evenodd;stroke-linejoin:round;stroke-miterlimit:2;">
    <g transform="matrix(0.70591,0,0,0.705777,-123.546,-64.0995)">
        <path d="M827.735,757.233L442.841,757.233C437.906,757.227 433.847,753.168 433.841,748.233L433.841,485.411C433.847,480.476 437.906,476.417 442.841,476.411L827.735,476.411C832.67,476.417 836.729,480.476 836.735,485.411L836.735,748.233C836.729,753.168 832.67,757.227 827.735,757.233Z" style="fill:white;fill-rule:nonzero;"/>
    </g>
    <g transform="matrix(0.70591,0,0,0.705777,-123.546,-64.0995)">
        <path d="M827.735,757.233L442.841,757.233C437.906,757.227 433.847,753.168 433.841,748.233L433.841,485.411C433.847,480.476 437.906,476.417 442.841,476.411L827.735,476.411C832.67,476.417 836.729,480.476 836.735,485.411L836.735,748.233C836.729,753.168 832.67,757.227 827.735,757.233ZM442.841,478.411C439.003,478.416 435.845,481.573 435.841,485.411L435.841,748.233C435.845,752.072 439.003,755.229 442.841,755.233L827.735,755.233C831.573,755.229 834.73,752.072 834.735,748.233L834.735,485.411C834.73,481.573 831.573,478.416 827.735,478.411L442.841,478.411Z" style="fill:rgb(63,61,86);fill-rule:nonzero;"/>
    </g>
    <g transform="matrix(0.70591,0,0,0.705777,-123.546,-64.0995)">
        <path d="M679.842,755.652L590.734,755.652L590.734,608.132C590.742,600.896 596.694,594.943 603.93,594.935L666.645,594.935C673.882,594.943 679.834,600.896 679.842,608.132L679.842,755.652Z" style="fill:rgb(230,230,230);fill-rule:nonzero;"/>
    </g>
    <g transform="matrix(0.70591,0,0,0.705777,-123.546,-64.0995)">
        <path d="M806.743,420.388L755.856,420.388L755.856,335.344C755.861,330.409 759.92,326.35 764.856,326.344L797.743,326.344C802.679,326.35 806.738,330.409 806.743,335.344L806.743,420.388Z" style="fill:white;fill-rule:nonzero;"/>
    </g>
    <g transform="matrix(0.70591,0,0,0.705777,-123.546,-64.0995)">
        <path d="M806.743,420.388L755.856,420.388L755.856,335.344C755.861,330.409 759.92,326.35 764.856,326.344L797.743,326.344C802.679,326.35 806.738,330.409 806.743,335.344L806.743,420.388ZM757.856,418.388L804.743,418.388L804.743,335.344C804.739,331.506 801.582,328.349 797.743,328.344L764.856,328.344C761.017,328.349 757.86,331.506 757.856,335.344L757.856,418.388Z" style="fill:rgb(63,61,86);fill-rule:nonzero;"/>
    </g>
    <g transform="matrix(0.70591,0,0,0.705777,0,0)">
        <circle cx="344.82" cy="267.387" r="97.992" style="fill:rgb(242,242,242);"/>
    </g>
    <g transform="matrix(0.70591,0,0,0.705777,-123.546,-64.0995)">
        <path d="M782.824,311.435C773.999,311.158 766.143,303.109 766.08,294.279C766.017,285.45 773.757,277.29 782.578,276.886C802.217,275.988 818.297,254.912 813.975,235.733C809.653,216.553 786.088,204.411 767.961,212.023C754.056,217.862 740.005,199.464 743.529,184.8C747.053,170.136 760.389,160.289 772.729,151.618C785.068,142.947 798.268,132.766 801.247,117.982C804.225,103.197 788.978,85.487 775.544,92.34" style="fill:rgb(230,230,230);fill-rule:nonzero;"/>
    </g>
    <g transform="matrix(0.70591,0,0,0.705777,-123.546,-64.0995)">
        <path d="M553.097,637.787L477.827,637.787C471.617,637.78 466.509,632.672 466.502,626.462L466.502,564.408C466.509,558.198 471.617,553.091 477.826,553.084L553.097,553.084C559.307,553.091 564.414,558.198 564.421,564.408L564.421,626.462C564.414,632.672 559.307,637.78 553.097,637.787Z" style="fill:rgb(230,230,230);fill-rule:nonzero;"/>
    </g>
    <g transform="matrix(0.70591,0,0,0.705777,-123.546,-64.0995)">
        <path d="M794.491,637.787L719.22,637.787C713.01,637.78 707.903,632.672 707.896,626.462L707.896,564.408C707.903,558.198 713.011,553.091 719.22,553.084L794.491,553.084C800.7,553.091 805.808,558.198 805.815,564.408L805.815,626.462C805.808,632.672 800.701,637.78 794.491,637.787Z" style="fill:rgb(230,230,230);fill-rule:nonzero;"/>
    </g>
    <g transform="matrix(0.70591,0,0,0.705777,-123.546,-64.0995)">
        <path d="M405.105,481.817L405.105,441.38C405.105,435.065 408.499,429.214 413.982,426.081L638.658,297.667C644.334,294.423 651.366,294.594 656.878,298.109L857.326,425.959C862.394,429.192 865.471,434.804 865.471,440.816L865.471,481.817C865.471,491.484 857.516,499.439 847.85,499.439L422.726,499.439C413.059,499.439 405.105,491.484 405.105,481.817Z" style="fill:rgb(108,99,255);fill-rule:nonzero;"/>
    </g>
    <g transform="matrix(0.70591,0,0,0.705777,-123.546,-64.0995)">
        <path d="M847.85,481.435L422.726,481.435C413.059,481.435 405.105,473.48 405.105,463.814L405.105,479.814C405.105,489.48 413.059,497.435 422.726,497.435L847.85,497.435C857.517,497.435 865.471,489.48 865.471,479.814L865.471,463.814C865.471,473.48 857.517,481.435 847.85,481.435Z" style="fill-opacity:0.2;fill-rule:nonzero;"/>
    </g>
    <g transform="matrix(0.70591,0,0,0.705777,-123.546,-64.0995)">
        <path d="M882.367,619.811C882.367,588.802 907.505,515.218 938.514,515.218C969.524,515.218 994.662,588.802 994.662,619.811C994.662,650.613 969.316,675.959 938.514,675.959C907.713,675.959 882.367,650.613 882.367,619.811Z" style="fill:rgb(242,242,242);fill-rule:nonzero;"/>
    </g>
    <g transform="matrix(0.70591,0,0,0.705777,-123.546,-64.0995)">
        <path d="M938.514,756.04C937.966,756.04 937.514,755.588 937.514,755.04L937.514,553.429C937.514,552.88 937.966,552.429 938.514,552.429C939.063,552.429 939.514,552.88 939.514,553.429L939.514,755.04C939.514,755.588 939.063,756.04 938.514,756.04Z" style="fill:rgb(63,61,86);fill-rule:nonzero;"/>
    </g>
    <g transform="matrix(0.70591,0,0,0.705777,-123.546,-64.0995)">
        <path d="M938.514,642.835C938.514,642.835 938.514,642.835 938.514,642.835C937.965,642.835 937.514,642.383 937.514,641.835C937.514,641.578 937.613,641.331 937.79,641.145L966.333,611.193C966.521,610.995 966.783,610.883 967.056,610.883C967.605,610.883 968.056,611.334 968.056,611.883C968.056,612.14 967.958,612.387 967.78,612.573L939.238,642.525C939.05,642.723 938.788,642.835 938.514,642.835Z" style="fill:rgb(63,61,86);fill-rule:nonzero;"/>
    </g>
    <g transform="matrix(0.70591,0,0,0.705777,-123.546,-64.0995)">
        <path d="M938.514,592.337C938.264,592.337 938.023,592.243 937.839,592.074L913.173,569.523C912.965,569.333 912.846,569.064 912.846,568.783C912.846,568.234 913.298,567.783 913.846,567.783C914.097,567.783 914.339,567.877 914.523,568.047L939.189,590.599C939.396,590.788 939.514,591.056 939.514,591.337C939.514,591.885 939.063,592.337 938.514,592.337C938.514,592.337 938.514,592.337 938.514,592.337L938.514,592.337Z" style="fill:rgb(63,61,86);fill-rule:nonzero;"/>
    </g>
    <g transform="matrix(0.70591,0,0,0.705777,-123.546,-64.0995)">
        <path d="M197.045,558.113C197.045,512.497 234.024,404.252 279.64,404.252C325.256,404.252 362.235,512.497 362.235,558.113L362.235,558.113C362.235,603.423 324.95,640.708 279.64,640.708C234.329,640.708 197.045,603.423 197.045,558.113L197.045,558.113Z" style="fill:rgb(108,99,255);fill-rule:nonzero;"/>
    </g>
    <g transform="matrix(0.70591,0,0,0.705777,-123.546,-64.0995)">
        <path d="M279.64,758.04C279.091,758.04 278.64,757.588 278.64,757.04L278.64,460.462C278.64,459.913 279.091,459.462 279.64,459.462C280.189,459.462 280.64,459.913 280.64,460.462L280.64,757.04C280.64,757.588 280.189,758.04 279.64,758.04Z" style="fill:rgb(63,61,86);fill-rule:nonzero;"/>
    </g>
    <g transform="matrix(0.70591,0,0,0.705777,-123.546,-64.0995)">
        <path d="M279.64,591.51C279.64,591.51 279.64,591.51 279.64,591.51C279.091,591.51 278.64,591.059 278.64,590.51C278.64,590.253 278.739,590.006 278.916,589.82L320.903,545.76C321.091,545.562 321.353,545.45 321.627,545.45C322.175,545.45 322.627,545.901 322.627,546.45C322.627,546.707 322.528,546.954 322.351,547.14L280.364,591.2C280.175,591.398 279.913,591.51 279.64,591.51Z" style="fill:rgb(63,61,86);fill-rule:nonzero;"/>
    </g>
    <g transform="matrix(0.70591,0,0,0.705777,-123.546,-64.0995)">
        <path d="M279.64,517.226C279.39,517.226 279.149,517.133 278.965,516.964L242.68,483.789C242.473,483.599 242.355,483.331 242.355,483.051C242.355,482.502 242.806,482.051 243.355,482.051C243.605,482.051 243.846,482.144 244.03,482.313L280.315,515.488C280.522,515.677 280.64,515.945 280.64,516.226C280.64,516.774 280.189,517.226 279.64,517.226C279.64,517.226 279.64,517.226 279.64,517.226L279.64,517.226Z" style="fill:rgb(63,61,86);fill-rule:nonzero;"/>
    </g>
    <g transform="matrix(0.70591,0,0,0.705777,-123.546,-64.0995)">
        <path d="M899.292,755.941C899.387,756.014 899.486,756.08 899.582,756.152L980.892,756.152C982.486,749.696 983.048,743.234 980.668,737.622C977.277,729.626 967.243,724.634 959.264,728.068C957.374,728.904 955.728,730.207 954.48,731.854C951.362,726.273 945.769,722.065 939.314,722.07C931.226,722.076 924.502,728.69 922.307,736.329C918.774,730.365 911.794,726.196 904.971,727.989C893.561,730.988 889.957,748.726 899.292,755.941Z" style="fill:rgb(230,230,230);fill-rule:nonzero;"/>
    </g>
    <g transform="matrix(0.70591,0,0,0.705777,-123.546,-64.0995)">
        <path d="M200.757,757.726C200.948,757.874 201.15,758.007 201.343,758.152L365.486,758.152C368.702,745.12 369.838,732.075 365.034,720.746C358.189,704.603 337.931,694.527 321.825,701.459C318.01,703.146 314.685,705.776 312.166,709.101C305.872,697.835 294.582,689.341 281.55,689.35C265.224,689.362 251.649,702.713 247.219,718.136C240.086,706.095 225.995,697.68 212.223,701.3C189.188,707.354 181.912,743.162 200.757,757.726Z" style="fill:rgb(230,230,230);fill-rule:nonzero;"/>
    </g>
    <g transform="matrix(0.705909,-0.00133541,0.00133566,0.705775,-124.556,-63.2973)">
        <rect x="175.018" y="756.042" width="849.965" height="2" style="fill:rgb(63,61,86);"/>
    </g>
    <g transform="matrix(0.70591,0,0,0.705777,-123.546,-64.0995)">
        <path d="M461.831,714.539C461.947,714.086 462.006,713.62 462.006,713.151C462.006,710.246 459.738,707.802 456.84,707.585L425.083,667.881L417.226,675.205L450.773,713.131C450.773,713.147 450.773,713.163 450.773,713.179C450.773,716.258 453.307,718.791 456.386,718.791C458.953,718.791 461.208,717.03 461.831,714.539L461.831,714.539Z" style="fill:rgb(255,184,184);fill-rule:nonzero;"/>
    </g>
    <g transform="matrix(0.70591,0,0,0.705777,-123.546,-64.0995)">
        <path d="M431.176,674.188L421.139,681.874C420.703,682.208 420.168,682.39 419.618,682.39C418.709,682.39 417.87,681.895 417.429,681.101L411.315,670.08C410.402,668.873 409.907,667.4 409.907,665.886C409.907,662.073 413.045,658.935 416.859,658.935C419.02,658.935 421.063,659.943 422.377,661.66L431.397,670.404C431.882,670.875 432.157,671.524 432.157,672.201C432.157,672.979 431.794,673.714 431.176,674.188L431.176,674.188Z" style="fill:rgb(63,61,86);fill-rule:nonzero;"/>
    </g>
    <g transform="matrix(0.70591,0,0,0.705777,0,0)">
        <circle cx="239.304" cy="546.635" r="12.762" style="fill:rgb(255,184,184);"/>
    </g>
    <g transform="matrix(0.70591,0,0,0.705777,0,0)">
        <path d="M266.547,712.182L272.918,712.182L272.311,700.259L262.909,700.259L266.547,712.182Z" style="fill:rgb(255,184,184);fill-rule:nonzero;"/>
    </g>
    <g transform="matrix(0.70591,0,0,0.705777,-123.546,-64.0995)">
        <path d="M439.939,800.924L452.485,800.923C456.871,800.923 460.48,804.532 460.48,808.918L460.48,809.178L439.939,809.179L439.939,800.924Z" style="fill:rgb(47,46,65);fill-rule:nonzero;"/>
    </g>
    <g transform="matrix(0.70591,0,0,0.705777,0,0)">
        <path d="M198.626,703.163L204.046,706.511L209.796,696.048L203.238,691.945L198.626,703.163Z" style="fill:rgb(255,184,184);fill-rule:nonzero;"/>
    </g>
    <g transform="matrix(0.70591,0,0,0.705777,-123.546,-64.0995)">
        <path d="M373.353,791.361L384.027,797.954L384.027,797.954C386.382,799.409 387.82,801.987 387.82,804.756C387.82,806.24 387.407,807.695 386.627,808.958L386.491,809.179L369.015,798.384L373.353,791.361Z" style="fill:rgb(47,46,65);fill-rule:nonzero;"/>
    </g>
    <g transform="matrix(0.70591,0,0,0.705777,-123.546,-64.0995)">
        <path d="M441.103,799.508C440.136,799.507 439.264,798.905 438.922,798L415.879,742.907C415.766,742.601 415.473,742.396 415.147,742.396C414.889,742.396 414.646,742.525 414.502,742.739L382.845,792.608C382.207,793.563 380.954,793.912 379.915,793.423L375.583,791.402C374.436,790.861 373.924,789.484 374.438,788.326L400.374,730.513C399.808,729.136 394.284,714.989 402.771,708L402.83,707.963L425.844,697.697L426.424,715.351L449.363,794.939C449.423,795.15 449.454,795.368 449.454,795.587C449.454,796.646 448.735,797.579 447.711,797.848L441.702,799.43C441.507,799.481 441.305,799.508 441.103,799.508Z" style="fill:rgb(47,46,65);fill-rule:nonzero;"/>
    </g>
    <g transform="matrix(0.70591,0,0,0.705777,-123.546,-64.0995)">
        <path d="M426.192,671.874C425.316,668.357 424.074,664.812 422.409,663.175C421.797,662.578 421.222,661.945 420.687,661.278C419.567,659.868 418.158,658.713 416.555,657.893C417.142,657.566 417.486,657.177 417.486,656.758C417.486,655.61 414.927,654.68 411.77,654.68C408.613,654.68 406.054,655.61 406.054,656.758C406.07,657.027 406.192,657.279 406.394,657.458C402.198,659.169 399.292,663.087 398.874,667.599C398.135,675.505 397.92,685.612 400.507,692.004C402.677,697.289 402.849,703.187 400.993,708.59C400.922,708.802 400.885,709.025 400.885,709.249C400.885,710.387 401.822,711.324 402.961,711.324C403.228,711.324 403.493,711.273 403.741,711.172L426.576,701.97C427.361,701.654 427.878,700.888 427.878,700.042L427.878,686.066C427.896,681.284 427.33,676.518 426.192,671.874Z" style="fill:rgb(63,61,86);fill-rule:nonzero;"/>
    </g>
    <g transform="matrix(0.70591,0,0,0.705777,-123.546,-64.0995)">
        <path d="M382.5,729.438C385.02,728.852 386.819,726.588 386.819,724C386.819,723.245 386.666,722.497 386.368,721.802L404.235,674.685L395.175,672.346L378.648,718.978C376.77,719.934 375.583,721.871 375.583,723.979C375.583,727.058 378.116,729.591 381.195,729.591C381.634,729.591 382.072,729.54 382.5,729.438L382.5,729.438Z" style="fill:rgb(255,184,184);fill-rule:nonzero;"/>
    </g>
    <g transform="matrix(0.70591,0,0,0.705777,-123.546,-64.0995)">
        <path d="M404.161,683.625L392.712,678.266C391.833,677.855 391.27,676.969 391.27,675.999C391.27,675.508 391.415,675.027 391.686,674.618L398.644,664.109C399.795,661.694 402.243,660.149 404.919,660.149C408.732,660.149 411.87,663.287 411.87,667.1C411.87,668.116 411.647,669.12 411.218,670.04L407.62,682.076C407.303,683.133 406.325,683.861 405.222,683.861C404.855,683.861 404.493,683.781 404.161,683.625Z" style="fill:rgb(63,61,86);fill-rule:nonzero;"/>
    </g>
    <g transform="matrix(0.70591,0,0,0.705777,-123.546,-64.0995)">
        <path d="M426.044,634.315C426.619,634.383 427.202,634.278 427.718,634.012C428.659,633.396 428.566,631.996 428.248,630.917C426.636,625.666 422.446,621.588 417.153,620.12C415.336,619.637 413.037,619.656 411.998,621.222C406.623,617.642 399.366,618.534 395.018,623.308C392.953,625.731 391.576,628.664 391.032,631.801C389.941,637.144 385.271,648.165 387.858,652.965C389.579,656.16 397.502,653.671 400.853,655.062C404.24,656.535 408.149,656.22 411.255,654.223C414.323,652.106 415.654,648.204 414.519,644.654C413.933,643.379 413.256,642.148 412.495,640.969C411.731,639.776 411.419,638.348 411.616,636.946C412.085,634.811 422.159,634.235 426.044,634.315Z" style="fill:rgb(47,46,65);fill-rule:nonzero;"/>
    </g>
</svg>
